<?xml version="1.0" encoding="UTF-8"?>
<svg version="1.1" xmlns="http://www.w3.org/2000/svg" width="800" height="800">
<path d="M0 0 C264 0 528 0 800 0 C800 264 800 528 800 800 C536 800 272 800 0 800 C0 536 0 272 0 0 Z " fill="#00008F" transform="translate(0,0)"/>
<path d="M0 0 C20.46 0 40.92 0 62 0 C62.99 8.58 63.98 17.16 65 26 C67.47095412 35.07875149 67.47095412 35.07875149 70.1875 44.0625 C70.61899532 45.4308302 71.04994287 46.79933322 71.48046875 48.16796875 C71.71813965 48.92255371 71.95581055 49.67713867 72.20068359 50.45458984 C80.40479002 76.58043394 80.40479002 76.58043394 83.5625 88.3125 C85.55217348 95.70102387 87.93936334 102.92176867 90.40771484 110.1628418 C92.61011982 116.67793863 94.50861703 123.23677704 96.29248047 129.87695312 C97.64496541 134.86346713 99.2436968 139.68926599 101.0859375 144.51953125 C102.59575088 148.61667441 103.79849723 152.80384259 105 157 C105.66 157 106.32 157 107 157 C108.62317531 155.07511924 110.13345991 153.1485115 111.625 151.125 C115.42150209 146.00627749 119.38488796 141.22343778 123.796875 136.609375 C126.73514838 130.23675612 121.40756104 119.76588993 119.2890625 113.390625 C118.92458511 112.28188522 118.56010773 111.17314545 118.18458557 110.0308075 C117.00198052 106.43589917 115.81352211 102.84295591 114.625 99.25 C113.39664809 95.52159464 112.16972123 91.79272225 110.94285583 88.06382751 C110.1246483 85.57738307 109.30593343 83.09110551 108.48670959 80.60499573 C106.0767509 73.2885803 103.68335258 65.96716155 101.31640625 58.63671875 C100.90669586 57.36826614 100.90669586 57.36826614 100.4887085 56.07418823 C99.48351887 52.95999219 98.47909777 49.84555781 97.47857666 46.7298584 C91.50391897 27.88177016 91.50391897 27.88177016 83.6875 9.75 C80 2.24259425 80 2.24259425 80 0 C103.76 0 127.52 0 152 0 C152.33 4.95 152.66 9.9 153 15 C154.22010541 19.75736379 155.50745864 24.33830025 157 29 C157.65056416 31.22573373 158.29385532 33.4536068 158.9296875 35.68359375 C159.24728027 36.78517822 159.56487305 37.8867627 159.89208984 39.02172852 C163.13726721 50.29924381 166.2774326 61.5878455 169.09716797 72.98022461 C169.32033691 73.86460205 169.54350586 74.74897949 169.7734375 75.66015625 C169.96341309 76.42980713 170.15338867 77.19945801 170.34912109 77.99243164 C170.99021983 80.27896659 170.99021983 80.27896659 173 83 C173.65484375 82.16339844 174.3096875 81.32679688 174.984375 80.46484375 C179.95850455 74.11803156 184.95465419 67.790387 190 61.5 C194.79336061 55.52201553 199.54594083 49.51370445 204.26953125 43.48046875 C206.13300912 41.10088882 208.00628252 38.72948103 209.88671875 36.36328125 C212.61484565 32.9270062 215.31691163 29.47153505 218 26 C218.69480469 25.10410156 219.38960938 24.20820313 220.10546875 23.28515625 C225.44931982 16.07266643 228.24453393 8.77733035 230 0 C249.47 0 268.94 0 289 0 C289 0.66 289 1.32 289 2 C287.53125 3.4453125 287.53125 3.4453125 285.5 5.125 C277.93936442 11.58276607 271.51471993 18.60103835 265.31298828 26.36621094 C263.88583049 28.1420644 262.44251986 29.90387108 260.99609375 31.6640625 C254.80503266 39.21003783 248.77784157 46.85518627 242.88256836 54.63427734 C238.59412864 60.27339147 234.15703084 65.77691824 229.66845703 71.25732422 C225.49456551 76.36296708 221.45494619 81.55578015 217.453125 86.796875 C214.87079843 90.17760205 212.25255375 93.52935412 209.625 96.875 C208.95307617 97.73363647 208.95307617 97.73363647 208.26757812 98.60961914 C205.77326437 101.78633114 203.24403418 104.92887199 200.671875 108.04296875 C200.12192871 108.71408691 199.57198242 109.38520508 199.00537109 110.07666016 C197.94313369 111.37049649 196.87347365 112.6582854 195.79541016 113.93896484 C192.12610903 118.41420937 192.12610903 118.41420937 191 124 C191.59784004 126.68674831 191.59784004 126.68674831 192.6875 129.4375 C194.76623394 135.25506789 196.5035456 141.11824863 198.16796875 147.06640625 C198.73278624 149.05785196 199.34541045 151.03623135 200 153 C200.77601563 151.98164062 201.55203125 150.96328125 202.3515625 149.9140625 C208.13646663 142.33140489 213.94516843 134.76909469 219.8125 127.25 C226.93473741 118.11629783 233.95201175 108.90439322 240.95898438 99.68212891 C242.99436619 97.00740347 245.03532175 94.33702928 247.078125 91.66796875 C254.04078461 82.56520922 260.93646208 73.42224986 267.70263672 64.17236328 C271.45922375 59.05013257 275.29166162 53.9928987 279.16601562 48.95922852 C290.99658961 33.57920514 302.32023475 17.91945225 310 0 C329.47 0 348.94 0 369 0 C369.66 6.27 370.32 12.54 371 19 C371.97130301 22.94028593 372.94563441 26.57310327 374.25 30.375 C374.88191873 32.33147964 375.51209048 34.28852428 376.140625 36.24609375 C376.45451172 37.20757324 376.76839844 38.16905273 377.09179688 39.15966797 C378.49777821 43.5567612 379.75214691 47.99342125 381 52.4375 C382.53749839 57.87697129 384.08559965 63.31231629 385.68359375 68.734375 C388.77631703 79.22831696 391.75885216 89.73728278 394.5625 100.3125 C396.77820105 108.65793862 399.1485864 116.9159802 401.81420898 125.12841797 C403.29654577 129.71107016 404.66317133 134.30703007 405.93945312 138.95117188 C409.08199617 150.34848611 412.78076318 161.5415101 416.55444336 172.74121094 C420.13326717 183.37037059 423.65183912 194.01814745 427.1328125 204.6796875 C427.5920222 206.08508906 428.05126619 207.49047941 428.51054382 208.89585876 C432.24053848 220.31165341 432.24053848 220.31165341 434.03030396 225.81509399 C438.49528868 239.54182667 443.00308941 253.24786861 447.8671875 266.83984375 C448.2195195 267.82901291 448.5718515 268.81818207 448.93486023 269.83732605 C452.42491334 279.46909999 456.29462513 289.44193769 462 298 C437.25 298 412.5 298 387 298 C386.34 292.72 385.68 287.44 385 282 C382.90695669 270.43318174 379.49941053 259.40238125 375.99560547 248.19726562 C374.96581294 244.89021241 373.95162045 241.57870842 372.94140625 238.265625 C368.80426781 224.67974064 368.80426781 224.67974064 364.375 211.1875 C362.04188688 204.33003915 360.06738303 197.38598076 358.14208984 190.4050293 C357.02094704 186.38036484 355.83642872 182.45375049 354.3203125 178.55859375 C353 175 353 175 353 172 C337.57885623 171.70914147 322.15901416 171.52287893 306.73538685 171.45853233 C299.57213295 171.42625199 292.41215943 171.3607448 285.25024414 171.21484375 C279.00193902 171.08764125 272.75674763 171.02499049 266.50710505 171.03737414 C263.20079939 171.04173489 259.90317292 171.00586958 256.59800148 170.91166306 C242.96807825 170.0652037 242.96807825 170.0652037 230.64757919 174.74897003 C226.62491465 178.93074947 223.79399391 183.62010481 221.1880331 188.77623653 C220.00639742 190.98802529 218.67895195 192.92282618 217.17987061 194.92973328 C214.75712346 197.70385052 214.75712346 197.70385052 215.02954102 200.43823242 C215.33045654 201.17404541 215.63137207 201.9098584 215.94140625 202.66796875 C216.26125488 203.52052246 216.58110352 204.37307617 216.91064453 205.25146484 C217.44987549 206.61198975 217.44987549 206.61198975 218 208 C218.6471609 209.99190219 219.28082291 211.9882304 219.90234375 213.98828125 C220.5798006 216.09665276 221.2581978 218.20472233 221.9375 220.3125 C223.9742549 226.6346814 225.99517159 232.95937999 227.93359375 239.3125 C230.23362057 246.80371146 232.62488224 254.26092936 235.125 261.6875 C235.4765062 262.73275848 235.4765062 262.73275848 235.83511353 263.7991333 C239.3480081 274.14750989 243.44710479 283.65526976 249.19921875 292.9921875 C251 296 251 296 251 298 C227.24 298 203.48 298 179 298 C178.01 292.39 177.02 286.78 176 281 C175.00378208 277.25509324 173.99515037 273.61393659 172.8125 269.9375 C172.40354492 268.62168945 172.40354492 268.62168945 171.98632812 267.27929688 C171.33347433 265.18329258 170.66821861 263.09115661 170 261 C164.75408138 265.23912616 160.5739766 269.63741767 156.5 275 C155.97019531 275.66644531 155.44039063 276.33289063 154.89453125 277.01953125 C149.73292703 283.75586218 146.97836854 290.04326292 143 298 C124.19 298 105.38 298 86 298 C84.02 289.42 82.04 280.84 80 272 C78.09977018 265.45973513 78.09977018 265.45973513 76 259 C72.03030224 262.79615906 68.62932517 266.8135194 65.3125 271.1875 C64.84650391 271.77724609 64.38050781 272.36699219 63.90039062 272.97460938 C57.91028158 280.86885905 53.9342102 289.11842163 49 298 C30.85 298 12.7 298 -6 298 C-2.04083713 293.38097665 1.83854343 289.12358675 6.1875 284.9375 C12.28000775 278.95394268 17.52859327 272.55239136 22.67041016 265.74853516 C24.84696145 262.88616638 27.08311711 260.0712652 29.3125 257.25 C31.21051031 254.83503933 33.10534298 252.41759203 35 250 C35.56686523 249.27699707 36.13373047 248.55399414 36.71777344 247.80908203 C40.30472272 243.22985338 43.87006382 238.63488384 47.41992188 234.02685547 C48.82338024 232.22656014 50.25429184 230.45517924 51.703125 228.69140625 C52.80914062 227.29728516 52.80914062 227.29728516 53.9375 225.875 C54.56527344 225.10929688 55.19304687 224.34359375 55.83984375 223.5546875 C58.83750802 216.95377022 54.75860729 208.4317505 52.6875 201.9375 C52.05279732 199.90032753 51.41998681 197.86256457 50.7890625 195.82421875 C50.48258789 194.83470215 50.17611328 193.84518555 49.86035156 192.82568359 C48.69100652 188.98516158 47.6000045 185.12802226 46.5625 181.25 C46.25441406 180.10015625 45.94632813 178.9503125 45.62890625 177.765625 C45 175 45 175 45 172 C29.59622735 171.68557831 14.19385727 171.48181685 -1.21280098 171.40672016 C-8.36838332 171.36931244 -15.52028568 171.29687519 -22.67431641 171.1394043 C-28.91644057 171.00209751 -35.1551194 170.9331268 -41.39880645 170.94328564 C-44.70163393 170.94634813 -47.99475915 170.90704059 -51.29626846 170.805933 C-65.04019169 169.97562194 -65.04019169 169.97562194 -77.42412567 174.8206749 C-81.66816507 179.22561109 -84.68229715 184.1741136 -87.5736351 189.53203392 C-89.95267139 193.64835848 -92.94688079 197.25514304 -95.9375 200.9375 C-100.9450336 207.30857561 -105.84201797 213.75496604 -110.6875 220.25 C-115.85443511 227.17276684 -121.10345338 234.01620201 -126.46484375 240.7890625 C-129.80183824 245.00515084 -133.07693096 249.26849366 -136.34375 253.5390625 C-138.24578288 256.02467364 -140.16588637 258.49531388 -142.09375 260.9609375 C-149.39545989 270.34243546 -156.17599863 279.96615012 -162.65063477 289.9362793 C-163.31857056 290.95782104 -163.31857056 290.95782104 -164 292 C-164.8202063 293.58832642 -164.8202063 293.58832642 -165.65698242 295.20874023 C-168 298 -168 298 -171.66699219 298.68115234 C-173.12729776 298.6802075 -174.5878293 298.64659135 -176.046875 298.5859375 C-176.81807678 298.57744781 -177.58927856 298.56895813 -178.3838501 298.56021118 C-180.84067097 298.52669295 -183.29417628 298.45142904 -185.75 298.375 C-187.41792125 298.34489779 -189.08589409 298.31752241 -190.75390625 298.29296875 C-194.83720981 298.22690845 -198.91804339 298.12340799 -203 298 C-205.08107358 277.35468291 -205.08107358 277.35468291 -200.71484375 270.84765625 C-198.2592093 267.86173391 -195.4828458 265.22108635 -192.64599609 262.60058594 C-189.96099145 259.98965588 -187.75657668 257.04257192 -185.5 254.0625 C-184.59663683 252.89720724 -183.69167686 251.73315068 -182.78515625 250.5703125 C-182.33156738 249.98668945 -181.87797852 249.40306641 -181.41064453 248.80175781 C-178.94862186 245.65711826 -176.44028418 242.54971671 -173.9375 239.4375 C-169.79909798 234.28221835 -165.72632918 229.08310808 -161.7097168 223.83251953 C-158.75247857 219.96902141 -155.76111576 216.13413317 -152.75 212.3125 C-135.1939124 190.02105448 -117.84526686 167.55351976 -100.875 144.8125 C-96.14155418 138.47161985 -91.2955072 132.2245887 -86.42138672 125.99145508 C-81.39556191 119.54726138 -76.49455541 113.01451304 -71.60839844 106.46411133 C-67.45067053 100.90199294 -63.22120537 95.40302068 -58.9375 89.9375 C-53.60922647 83.13160033 -48.42832068 76.23125903 -43.32885742 69.25244141 C-40.30148162 65.11185445 -37.24851258 60.995626 -34.13671875 56.91796875 C-20.24152585 38.70218761 -10.48541237 20.97082474 0 0 Z " fill="#FDFDFE" transform="translate(203,422)"/>
<path d="M0 0 C2.13140646 0.05020027 4.26292601 0.09582072 6.39453125 0.13671875 C11.59883431 0.24651962 16.7988913 0.41346752 22 0.625 C21.59243469 1.16828445 21.18486938 1.71156891 20.76495361 2.27131653 C20.22795837 2.98720444 19.69096313 3.70309235 19.13769531 4.44067383 C18.60638 5.14895828 18.0750647 5.85724274 17.52764893 6.58699036 C16.28244635 8.24819327 15.03935082 9.91097541 13.796875 11.57421875 C6.05025507 21.93754045 -1.86177096 32.16820391 -9.8125 42.375 C-16.09683233 50.44264307 -22.31645837 58.55817146 -28.52001953 66.68798828 C-32.33253539 71.67784325 -36.1685218 76.64970368 -40 81.625 C-41.66695292 83.79144651 -43.33347413 85.95822497 -45 88.125 C-45.83332547 89.20833938 -46.6666588 90.29167272 -47.5 91.375 C-47.9125 91.91125 -48.325 92.4475 -48.75 93 C-50 94.625 -51.25 96.25 -52.5 97.875 C-53.1182666 98.67877075 -53.1182666 98.67877075 -53.74902344 99.4987793 C-54.5855491 100.58623001 -55.42213803 101.67363207 -56.25878906 102.76098633 C-58.29379288 105.40593787 -60.32756533 108.05181112 -62.359375 110.69921875 C-67.15375095 116.94287502 -71.97411088 123.16538067 -76.8125 129.375 C-83.09694941 137.4425508 -89.31645938 145.55817278 -95.52001953 153.68798828 C-99.33253539 158.67784325 -103.1685218 163.64970368 -107 168.625 C-108.66695292 170.79144651 -110.33347413 172.95822497 -112 175.125 C-112.83332547 176.20833938 -113.6666588 177.29167272 -114.5 178.375 C-114.9125 178.91125 -115.325 179.4475 -115.75 180 C-117 181.625 -118.25 183.25 -119.5 184.875 C-119.91217773 185.41084717 -120.32435547 185.94669434 -120.74902344 186.4987793 C-121.5855491 187.58623001 -122.42213803 188.67363207 -123.25878906 189.76098633 C-125.29379288 192.40593787 -127.32756533 195.05181112 -129.359375 197.69921875 C-134.15375095 203.94287502 -138.97411088 210.16538067 -143.8125 216.375 C-150.09694941 224.4425508 -156.31645938 232.55817278 -162.52001953 240.68798828 C-166.33253539 245.67784325 -170.1685218 250.64970368 -174 255.625 C-175.66695292 257.79144651 -177.33347413 259.95822497 -179 262.125 C-179.83332547 263.20833938 -180.6666588 264.29167272 -181.5 265.375 C-181.9125 265.91125 -182.325 266.4475 -182.75 267 C-184 268.625 -185.25 270.25 -186.5 271.875 C-186.91217773 272.41084717 -187.32435547 272.94669434 -187.74902344 273.4987793 C-188.5855491 274.58623001 -189.42213803 275.67363207 -190.25878906 276.76098633 C-192.29379288 279.40593787 -194.32756533 282.05181112 -196.359375 284.69921875 C-201.15375095 290.94287502 -205.97411088 297.16538067 -210.8125 303.375 C-217.09694941 311.4425508 -223.31645938 319.55817278 -229.52001953 327.68798828 C-233.33253539 332.67784325 -237.1685218 337.64970368 -241 342.625 C-242.66695292 344.79144651 -244.33347413 346.95822497 -246 349.125 C-246.83332547 350.20833938 -247.6666588 351.29167272 -248.5 352.375 C-248.9125 352.91125 -249.325 353.4475 -249.75 354 C-251 355.625 -252.25 357.25 -253.5 358.875 C-253.91241943 359.41116943 -254.32483887 359.94733887 -254.74975586 360.49975586 C-255.58380863 361.5839756 -256.41795589 362.66812264 -257.25219727 363.75219727 C-259.71471531 366.95246208 -262.17711056 370.15279917 -264.62718201 373.36260986 C-265.85126665 374.95062851 -267.10088287 376.51887516 -268.35229492 378.08544922 C-270.15594739 380.40335566 -271.6584275 382.72309758 -273.06787109 385.29760742 C-275.92414091 390.15652601 -278.83142803 394.6808369 -284.46401978 396.35922241 C-291.52449834 397.3794709 -298.59342497 396.90105171 -305.6875 396.5 C-307.85331383 396.42968032 -310.0193475 396.36581843 -312.18554688 396.30859375 C-317.46187331 396.15523989 -322.72990322 395.92188383 -328 395.625 C-327.04728448 394.18300256 -326.09285095 392.74214011 -325.13769531 391.30175781 C-324.60638 390.49925598 -324.0750647 389.69675415 -323.52764893 388.86993408 C-321.73939051 386.24202514 -319.80139836 383.80222707 -317.75 381.375 C-314.43908399 377.39302731 -311.20996173 373.36198663 -308.0625 369.25 C-307.43408203 368.4290686 -307.43408203 368.4290686 -306.79296875 367.59155273 C-305.94434978 366.48148233 -305.09620471 365.37104947 -304.24853516 364.26025391 C-297.60931648 355.56461709 -290.90273398 346.92193249 -284.18164062 338.28955078 C-279.09539103 331.75424698 -274.04107694 325.19520361 -269 318.625 C-262.75766659 310.4891588 -256.48150517 302.38091816 -250.18164062 294.28955078 C-245.09539103 287.75424698 -240.04107694 281.19520361 -235 274.625 C-228.75766659 266.4891588 -222.48150517 258.38091816 -216.18164062 250.28955078 C-211.09539103 243.75424698 -206.04107694 237.19520361 -201 230.625 C-194.75766659 222.4891588 -188.48150517 214.38091816 -182.18164062 206.28955078 C-177.09538481 199.75423899 -172.04194067 193.19454853 -167 186.625 C-164.91420895 183.91198414 -162.82713522 181.19995518 -160.74023438 178.48779297 C-158.70558632 175.84322514 -156.67211744 173.19777553 -154.640625 170.55078125 C-149.1819482 163.44201424 -143.68784519 156.36156378 -138.18164062 149.28955078 C-133.09539103 142.75424698 -128.04107694 136.19520361 -123 129.625 C-116.75766659 121.4891588 -110.48150517 113.38091816 -104.18164062 105.28955078 C-99.09539103 98.75424698 -94.04107694 92.19520361 -89 85.625 C-82.75766659 77.4891588 -76.48150517 69.38091816 -70.18164062 61.28955078 C-65.09539103 54.75424698 -60.04107694 48.19520361 -55 41.625 C-49.31278762 34.21266653 -43.60618114 26.81589796 -37.875 19.4375 C-37.03243652 18.35142456 -37.03243652 18.35142456 -36.17285156 17.2434082 C-35.04185079 15.7889123 -33.89089733 14.34973743 -32.72167969 12.92578125 C-30.90866263 10.63952184 -30.90866263 10.63952184 -29.59863281 7.87109375 C-23.25433064 -3.12725452 -11.11796928 -0.45375972 0 0 Z " fill="#FD1621" transform="translate(778,-0.625)"/>
<path d="M0 0 C0.66 0 1.32 0 2 0 C2.01417969 1.00675781 2.02835938 2.01351563 2.04296875 3.05078125 C2.26290684 10.86757409 3.03532846 18.21421137 5.125 25.76171875 C5.34310837 26.56915527 5.56121674 27.3765918 5.78593445 28.20849609 C8.49572693 38.064217 11.65728512 47.77994485 14.8125 57.5 C15.70904437 60.26508844 16.60401287 63.03063084 17.49357605 65.79797363 C18.04031363 67.49877138 18.59100067 69.19830612 19.14619446 70.8963623 C20.15434062 74.03190209 21 76.68439992 21 80 C-5.07 80 -31.14 80 -58 80 C-53.50878274 73.26317411 -53.50878274 73.26317411 -51.22265625 70.51171875 C-50.46299561 69.58987793 -50.46299561 69.58987793 -49.68798828 68.64941406 C-49.15157715 68.00198242 -48.61516602 67.35455078 -48.0625 66.6875 C-41.77544962 59.01932489 -35.70853214 51.20446726 -29.73291016 43.29199219 C-27.89390254 40.85967274 -26.04652566 38.43383326 -24.19921875 36.0078125 C-18.37459834 28.33183144 -12.60859489 20.63609431 -7.25 12.625 C-6.85594971 12.03702637 -6.46189941 11.44905273 -6.0559082 10.84326172 C-3.75912602 7.34596974 -1.8017482 3.77454844 0 0 Z " fill="#020290" transform="translate(215,479)"/>
<path d="M0 0 C0.66 0 1.32 0 2 0 C2.05607422 1.59714844 2.05607422 1.59714844 2.11328125 3.2265625 C2.87993076 21.57078172 7.9897622 37.38936233 13.88085938 54.68896484 C15.48828499 59.44461629 17.04012199 64.21652558 18.5625 69 C18.93918823 70.16438599 18.93918823 70.16438599 19.32348633 71.35229492 C20.2722672 74.34706539 21 76.8379976 21 80 C-5.07 80 -31.14 80 -58 80 C-53.50601685 73.25902527 -53.50601685 73.25902527 -51.1171875 70.37109375 C-50.59527832 69.7359082 -50.07336914 69.10072266 -49.53564453 68.44628906 C-48.98763184 67.78338867 -48.43961914 67.12048828 -47.875 66.4375 C-42.10737803 59.39408326 -36.49109934 52.26200211 -31 45 C-30.42459473 44.24138672 -29.84918945 43.48277344 -29.25634766 42.70117188 C-14.32223725 23.10998857 -14.32223725 23.10998857 -1.41015625 2.16796875 C-0.94480469 1.45253906 -0.47945312 0.73710937 0 0 Z " fill="#020290" transform="translate(522,479)"/>
<path d="M0 0 C0.66 0 1.32 0 2 0 C3.83339704 5.21432868 5.66647874 10.42876806 7.49926758 15.64331055 C8.12287863 17.41742962 8.74657602 19.19151836 9.37036133 20.96557617 C10.26666573 23.51473149 11.16266014 26.06399559 12.05859375 28.61328125 C12.3377916 29.40712723 12.61698944 30.20097321 12.90464783 31.01887512 C13.95453569 34.00697061 14.99843317 36.9952995 16 40 C15.15478516 41.60302734 15.15478516 41.60302734 13.7890625 43.3359375 C13.29003418 43.98240234 12.79100586 44.62886719 12.27685547 45.29492188 C11.73174316 45.98134766 11.18663086 46.66777344 10.625 47.375 C9.51340373 48.80817573 8.40405691 50.24309877 7.296875 51.6796875 C6.74064453 52.39995117 6.18441406 53.12021484 5.61132812 53.86230469 C2.47461851 58.02367278 -0.38028678 62.37611045 -3.2578125 66.71875 C-3.83273437 67.4715625 -4.40765625 68.224375 -5 69 C-5.66 69 -6.32 69 -7 69 C-8.99073919 63.17246903 -10.94548924 57.33620387 -12.83984375 51.4765625 C-14.11161744 47.56455688 -15.47633346 43.75389946 -17.06640625 39.9609375 C-21.08988688 29.75329925 -21.08988688 29.75329925 -19.15283203 24.85986328 C-16.53629059 20.35982324 -13.17588483 16.58530045 -9.62841797 12.80126953 C-7.27307838 10.19591788 -5.36111701 7.39595833 -3.375 4.5 C-1.5234375 1.84375 -1.5234375 1.84375 0 0 Z " fill="#040490" transform="translate(342,596)"/>
</svg>
