<?xml version="1.0" encoding="UTF-8"?>
<svg version="1.1" xmlns="http://www.w3.org/2000/svg" width="560" height="376">
<path d="M0 0 C184.8 0 369.6 0 560 0 C560 124.08 560 248.16 560 376 C375.2 376 190.4 376 0 376 C0 251.92 0 127.84 0 0 Z " fill="#FDFCFC" transform="translate(0,0)"/>
<path d="M0 0 C8.91508845 -0.55630152 17.08431044 2.97346712 24.00390625 8.47265625 C33.59841975 17.74801753 34.68324736 30.44429441 34.94140625 43.16015625 C34.92911417 55.91164809 31.42138034 68.40556169 23.06640625 78.22265625 C20.60912884 80.24991011 18.58957341 81.335018 15.56640625 82.28515625 C15.56640625 82.94515625 15.56640625 83.60515625 15.56640625 84.28515625 C7.58098905 88.27786485 -3.81352236 89.04002442 -12.43359375 86.28515625 C-12.43359375 84.30515625 -12.43359375 82.32515625 -12.43359375 80.28515625 C-11.63695312 80.34316406 -10.8403125 80.40117187 -10.01953125 80.4609375 C-2.97702152 80.97708737 -2.97702152 80.97708737 3.12890625 78.03515625 C4.33546875 76.67390625 4.33546875 76.67390625 5.56640625 75.28515625 C6.14390625 74.70765625 6.72140625 74.13015625 7.31640625 73.53515625 C11.64530631 65.74313614 10.86795202 56.21009555 10.81640625 47.59765625 C10.82414062 46.32470703 10.831875 45.05175781 10.83984375 43.74023438 C11.14765959 25.62713275 11.14765959 25.62713275 3.44140625 9.91015625 C-0.624122 7.61224898 -3.87562132 7.30621028 -8.43359375 8.28515625 C-13.47358631 10.58427636 -15.93664356 14.69343558 -18.09960938 19.63598633 C-21.67043226 29.3351793 -21.11473232 39.27532305 -21.02734375 49.484375 C-21.02563009 51.61334668 -21.02570093 53.74232047 -21.02746582 55.87129211 C-21.02582171 60.30494716 -21.00727589 64.73809094 -20.97558594 69.17163086 C-20.93564374 74.86257403 -20.93157705 80.5528576 -20.93904877 86.2439146 C-20.94211001 90.62671489 -20.93003258 95.00936588 -20.91291809 99.3921299 C-20.90587905 101.49215574 -20.90276465 103.59219848 -20.90361023 105.69223595 C-20.90182093 108.61244091 -20.8805225 111.53183831 -20.85351562 114.4519043 C-20.85791153 115.75698944 -20.85791153 115.75698944 -20.86239624 117.08843994 C-20.86019252 119.72609987 -20.86019252 119.72609987 -20.43359375 123.28515625 C-17.53266873 125.21910626 -16.53684638 125.58647566 -13.24609375 125.91015625 C-11.35890625 126.09578125 -11.35890625 126.09578125 -9.43359375 126.28515625 C-9.43359375 128.26515625 -9.43359375 130.24515625 -9.43359375 132.28515625 C-24.28359375 132.28515625 -39.13359375 132.28515625 -54.43359375 132.28515625 C-54.43359375 130.30515625 -54.43359375 128.32515625 -54.43359375 126.28515625 C-53.79550781 126.16398437 -53.15742188 126.0428125 -52.5 125.91796875 C-51.67371094 125.75039063 -50.84742188 125.5828125 -49.99609375 125.41015625 C-49.17238281 125.24773437 -48.34867187 125.0853125 -47.5 124.91796875 C-46.47712891 124.60472656 -46.47712891 124.60472656 -45.43359375 124.28515625 C-44.25052036 121.91900946 -44.29623397 120.47076129 -44.27537537 117.83065796 C-44.26558655 116.89393753 -44.25579773 115.9572171 -44.24571228 114.99211121 C-44.23995682 113.96136978 -44.23420135 112.93062836 -44.22827148 111.86865234 C-44.21342209 110.24424477 -44.21342209 110.24424477 -44.19827271 108.58702087 C-44.1665914 104.99423435 -44.14187407 101.40143459 -44.1171875 97.80859375 C-44.0966237 95.3228012 -44.07562739 92.83701219 -44.05421448 90.35122681 C-44.00458998 84.46872519 -43.95934005 78.58620254 -43.91619211 72.70365012 C-43.8619914 65.35057356 -43.80102968 57.99755573 -43.74023438 50.64453125 C-43.63258039 37.52477951 -43.53096365 24.40498814 -43.43359375 11.28515625 C-47.11735595 9.74136493 -50.46923843 8.83832211 -54.43359375 8.28515625 C-54.43359375 5.97515625 -54.43359375 3.66515625 -54.43359375 1.28515625 C-43.54359375 1.28515625 -32.65359375 1.28515625 -21.43359375 1.28515625 C-21.43359375 3.59515625 -21.43359375 5.90515625 -21.43359375 8.28515625 C-20.89992188 7.87523437 -20.36625 7.4653125 -19.81640625 7.04296875 C-13.26665573 2.30629796 -7.89609575 0.9252247 0 0 Z " fill="#F48323" transform="translate(312.43359375,153.71484375)"/>
<path d="M0 0 C10.89 0 21.78 0 33 0 C33.029729 4.34478516 33.029729 4.34478516 33.06005859 8.77734375 C33.12704518 18.36070357 33.2046836 27.94395595 33.28752708 37.52719116 C33.33741608 43.33597436 33.38374683 49.14474003 33.421875 54.95361328 C33.45882114 60.56227717 33.5052065 66.17079168 33.55806351 71.77932739 C33.5765579 73.91624321 33.59168403 76.05319099 33.60334396 78.19015503 C33.62029125 81.18942474 33.64934679 84.18835602 33.68115234 87.1875 C33.68331253 88.06575943 33.68547272 88.94401886 33.68769836 89.84889221 C33.79051219 97.46699329 34.98698561 104.36309158 39 111 C42.30316129 114.18194436 44.86164184 114.43223968 49.375 114.4375 C54.79864003 114.26782188 58.11343411 114.07615447 62 110 C71.3446063 96.31116995 71.96520008 78.81921514 69.67919922 62.74414062 C68.11186628 55.14933655 64.95968499 48.55785649 59.15234375 43.33984375 C55.37482119 40.98831882 51.30651768 41.57560973 47 42 C44.02019799 42.85060013 44.02019799 42.85060013 42 44 C42 41.69 42 39.38 42 37 C47.25061496 35.27046673 51.85873295 34.64777444 57.375 34.6875 C58.1187085 34.68878906 58.86241699 34.69007813 59.62866211 34.69140625 C65.25893497 34.78982684 69.80269177 35.73208368 75 38 C75 38.66 75 39.32 75 40 C75.74121094 40.24621094 76.48242188 40.49242187 77.24609375 40.74609375 C84.17537853 43.9011298 88.48923294 51.03222327 91.30859375 57.859375 C94.99432298 69.27055927 95.19812196 85.4448147 90.5 96.5 C89.71165859 98.02412672 88.89788711 99.53772671 88 101 C87.34 101 86.68 101 86 101 C85.855625 101.845625 85.71125 102.69125 85.5625 103.5625 C83.31956525 108.49695646 79.53243823 111.14185798 75 114 C74.34 114 73.68 114 73 114 C73 114.66 73 115.32 73 116 C71.43979133 116.65134925 69.87671421 117.29582964 68.3125 117.9375 C67.00732422 118.47697266 67.00732422 118.47697266 65.67578125 119.02734375 C53.67862729 123.388353 40.59751434 121.55485973 29 117 C28.34 116.67 27.68 116.34 27 116 C27 115.34 27 114.68 27 114 C25.68 113.67 24.36 113.34 23 113 C23 112.34 23 111.68 23 111 C22.40574219 110.76796875 21.81148437 110.5359375 21.19921875 110.296875 C18.43862048 108.66895559 17.43313997 106.99967192 15.8125 104.25 C15.30332031 103.40953125 14.79414062 102.5690625 14.26953125 101.703125 C11.70463411 96.24186708 11.83885345 90.45108026 11.79467773 84.51611328 C11.78477814 83.68618362 11.77487854 82.85625397 11.76467896 82.00117493 C11.73324188 79.27424921 11.70837732 76.54730611 11.68359375 73.8203125 C11.66300884 71.92316246 11.64201197 70.02601685 11.62062073 68.12887573 C11.56555881 63.14770098 11.5160798 58.16648593 11.46777344 53.1852417 C11.41744213 48.09741653 11.3618169 43.00964952 11.30664062 37.921875 C11.19925341 27.94796641 11.09776565 17.97400722 11 8 C7.3162378 6.45620868 3.96435532 5.55316586 0 5 C0 3.35 0 1.7 0 0 Z " fill="#F48220" transform="translate(107,119)"/>
<path d="M0 0 C6.74726785 3.72263054 9.4346828 8.09370809 12.15234375 15.1875 C12.64734375 16.1775 12.64734375 16.1775 13.15234375 17.1875 C13.27228455 19.09658186 13.32965663 21.00972248 13.35766602 22.92236328 C13.38758385 24.72400436 13.38758385 24.72400436 13.41810608 26.56204224 C13.43481857 27.86414642 13.45153107 29.16625061 13.46875 30.5078125 C13.48932 31.85017538 13.51031648 33.19253179 13.53172302 34.53488159 C13.58693906 38.06938438 13.63635033 41.60394557 13.68457031 45.1385498 C13.73478879 48.74476322 13.79047304 52.35089172 13.84570312 55.95703125 C13.95327894 63.03378198 14.05422014 70.11061098 14.15234375 77.1875 C19.59734375 77.6825 19.59734375 77.6825 25.15234375 78.1875 C25.15234375 80.1675 25.15234375 82.1475 25.15234375 84.1875 C10.30234375 84.1875 -4.54765625 84.1875 -19.84765625 84.1875 C-19.84765625 82.2075 -19.84765625 80.2275 -19.84765625 78.1875 C-14.89765625 77.6925 -14.89765625 77.6925 -9.84765625 77.1875 C-8.85354343 74.20516153 -8.7154261 72.22272523 -8.70239258 69.10864258 C-8.69601273 68.07359085 -8.68963287 67.03853912 -8.68305969 65.97212219 C-8.68194687 64.85339218 -8.68083405 63.73466217 -8.6796875 62.58203125 C-8.6763591 61.4288591 -8.6730307 60.27568695 -8.66960144 59.08757019 C-8.66453412 56.64391479 -8.66219305 54.20025245 -8.66235352 51.7565918 C-8.66017513 48.03227172 -8.64203943 44.30825171 -8.62304688 40.58398438 C-8.62011124 38.20833434 -8.61812758 35.83268291 -8.6171875 33.45703125 C-8.60640923 31.79411797 -8.60640923 31.79411797 -8.59541321 30.09761047 C-8.61608967 23.03563456 -8.71645555 15.26279514 -12.84765625 9.1875 C-13.83765625 8.8575 -14.82765625 8.5275 -15.84765625 8.1875 C-15.84765625 7.5275 -15.84765625 6.8675 -15.84765625 6.1875 C-21.45227156 6.60839996 -26.56852172 7.10363111 -31.84765625 9.1875 C-31.84765625 9.8475 -31.84765625 10.5075 -31.84765625 11.1875 C-32.50765625 11.1875 -33.16765625 11.1875 -33.84765625 11.1875 C-35.29208467 13.94504517 -36.43217674 16.67058023 -37.41015625 19.625 C-37.65894531 20.36621094 -37.90773438 21.10742188 -38.1640625 21.87109375 C-39.78573313 27.36624052 -39.9944456 32.45466522 -39.98046875 38.14453125 C-39.98142548 39.00632492 -39.9823822 39.86811859 -39.98336792 40.75602722 C-39.98404689 42.57571486 -39.98221237 44.39540494 -39.97802734 46.21508789 C-39.97269475 48.98003682 -39.97797182 51.74482186 -39.984375 54.50976562 C-39.98371379 56.28385452 -39.98243173 58.05794332 -39.98046875 59.83203125 C-39.98249298 60.65000687 -39.98451721 61.46798248 -39.98660278 62.31074524 C-39.96632598 67.3545201 -39.56657228 72.19399637 -38.84765625 77.1875 C-35.54765625 77.5175 -32.24765625 77.8475 -28.84765625 78.1875 C-28.84765625 80.1675 -28.84765625 82.1475 -28.84765625 84.1875 C-43.69765625 84.1875 -58.54765625 84.1875 -73.84765625 84.1875 C-73.84765625 82.2075 -73.84765625 80.2275 -73.84765625 78.1875 C-68.89765625 77.6925 -68.89765625 77.6925 -63.84765625 77.1875 C-62.79152945 74.0191196 -62.72081182 71.77765239 -62.71826172 68.45019531 C-62.71510956 67.27177063 -62.7119574 66.09334595 -62.70870972 64.87921143 C-62.71073395 63.60422791 -62.71275818 62.32924438 -62.71484375 61.015625 C-62.71388702 59.70470886 -62.7129303 58.39379272 -62.71194458 57.04315186 C-62.71046998 54.26573511 -62.71261317 51.48835051 -62.71728516 48.7109375 C-62.72296005 45.16595498 -62.71971622 41.62104856 -62.71371269 38.07606888 C-62.70920811 34.680915 -62.71237313 31.28578103 -62.71484375 27.890625 C-62.71281952 26.6237384 -62.71079529 25.35685181 -62.70870972 24.05157471 C-62.72385448 18.32917561 -62.79992473 12.82048755 -63.84765625 7.1875 C-67.47765625 6.8575 -71.10765625 6.5275 -74.84765625 6.1875 C-74.51765625 4.2075 -74.18765625 2.2275 -73.84765625 0.1875 C-62.62765625 0.1875 -51.40765625 0.1875 -39.84765625 0.1875 C-39.35265625 4.1475 -39.35265625 4.1475 -38.84765625 8.1875 C-37.45546875 6.8571875 -37.45546875 6.8571875 -36.03515625 5.5 C-25.4690834 -3.41446226 -12.74919338 -5.95100112 0 0 Z " fill="#F48323" transform="translate(423.84765625,154.8125)"/>
<path d="M0 0 C3.3 0 6.6 0 10 0 C10 7.92 10 15.84 10 24 C14.95 24 19.9 24 25 24 C25 26.31 25 28.62 25 31 C20.05 31 15.1 31 10 31 C10.04046859 38.92870451 10.09775658 46.85675727 10.18390274 54.785079 C10.22325618 58.46733202 10.25550341 62.14935026 10.27099609 65.83178711 C10.28624368 69.3917766 10.32082954 72.95112009 10.36830902 76.51082039 C10.3901637 78.51626348 10.39246675 80.52188927 10.39434814 82.52745056 C10.50765277 89.65606505 10.91843314 95.93459214 15 102 C17.88415883 103.44207941 20.41721528 103.09394887 23.625 103.0625 C25.40777344 103.04896484 25.40777344 103.04896484 27.2265625 103.03515625 C28.59941406 103.01775391 28.59941406 103.01775391 30 103 C30.04254356 104.99954746 30.04080783 107.00041636 30 109 C28.26740385 110.73259615 26.0396719 110.1648671 23.72949219 110.18994141 C22.65683105 110.18873291 22.65683105 110.18873291 21.5625 110.1875 C20.83836914 110.18669434 20.11423828 110.18588867 19.36816406 110.18505859 C12.16184103 110.10320504 5.43245547 109.44802793 -1 106 C-1 105.34 -1 104.68 -1 104 C-1.75796875 103.76023437 -2.5159375 103.52046875 -3.296875 103.2734375 C-6.42790272 101.79841577 -7.42152 100.52169726 -9.25 97.625 C-10.00023437 96.46871094 -10.00023437 96.46871094 -10.765625 95.2890625 C-12.93482238 91.26643699 -13.12338626 87.75768141 -13.11352539 83.22167969 C-13.11344986 82.0607782 -13.11337433 80.89987671 -13.11329651 79.70379639 C-13.10813522 78.45576233 -13.10297394 77.20772827 -13.09765625 75.921875 C-13.0962413 74.64016418 -13.09482635 73.35845337 -13.09336853 72.03790283 C-13.08955901 68.6381636 -13.07974214 65.2384674 -13.06866455 61.83874512 C-13.05841674 58.366461 -13.0538637 54.8941699 -13.04882812 51.421875 C-13.03811841 44.61456392 -13.02053433 37.80728846 -13 31 C-16.63 31 -20.26 31 -24 31 C-24 28.69 -24 26.38 -24 24 C-17.565 23.505 -17.565 23.505 -11 23 C-11 22.34 -11 21.68 -11 21 C-10.01 21 -9.02 21 -8 21 C-7.5359375 20.071875 -7.5359375 20.071875 -7.0625 19.125 C-6.375 17.75 -5.6875 16.375 -5 15 C-4.34 15 -3.68 15 -3 15 C-3.04125 14.278125 -3.0825 13.55625 -3.125 12.8125 C-2.98903698 9.75333202 -2.18995216 7.79988743 -1 5 C-0.63128912 3.34080104 -0.28718326 1.6752357 0 0 Z " fill="#F48222" transform="translate(227,131)"/>
<path d="M0 0 C1.65 0 3.3 0 5 0 C5 0.66 5 1.32 5 2 C6.65 2 8.3 2 10 2 C10 2.66 10 3.32 10 4 C10.99 3.67 11.98 3.34 13 3 C14.32 3 15.64 3 17 3 C17.30292969 3.81082031 17.60585938 4.62164062 17.91796875 5.45703125 C20.39449334 12.00267623 23.01326676 18.42070189 25.984375 24.7578125 C27 27 27 27 28 30 C31.21432718 25.29682802 32.82223592 20.163501 34.625 14.8125 C35.24112068 13.00614619 35.85825848 11.20013888 36.4765625 9.39453125 C36.74549316 8.59893799 37.01442383 7.80334473 37.29150391 6.98364258 C38 5 38 5 39 3 C40.32 3 41.64 3 43 3 C43.495 4.485 43.495 4.485 44 6 C44.9075 5.505 45.815 5.01 46.75 4.5 C51.8671528 2.29794654 57.53704238 2.18534842 63 3 C64.859375 4.3984375 64.859375 4.3984375 66 6 C66 6.66 66 7.32 66 8 C66.66 8 67.32 8 68 8 C68 17.57 68 27.14 68 37 C67.01 37 66.02 37 65 37 C64.505 35.02 64.505 35.02 64 33 C63.2575 33.66 62.515 34.32 61.75 35 C57.10491521 38.12265269 51.36216066 37.82896913 46 37 C44.63507329 36.04357286 43.29573182 35.04826372 42 34 C41.01 34 40.02 34 39 34 C39.32552083 32.01432292 39.65104167 30.02864583 39.9765625 28.04296875 C40.19577848 25.68244176 40.19577848 25.68244176 38 23 C36.68 23.33 35.36 23.66 34 24 C33.773125 25.0725 33.54625 26.145 33.3125 27.25 C29.35337779 43.05820939 29.35337779 43.05820939 24 47 C20.3125 47.1875 20.3125 47.1875 17 47 C17 46.34 17 45.68 17 45 C18.98 45 20.96 45 23 45 C25.29377008 39.12221417 26.01665858 34.06165505 23.625 28.125 C22.35313012 24.93188689 22.35313012 24.93188689 20 24 C20 23.01 20 22.02 20 21 C17.36 21.66 14.72 22.32 12 23 C12.05220703 23.92232422 12.05220703 23.92232422 12.10546875 24.86328125 C12.13253906 25.67152344 12.15960938 26.47976562 12.1875 27.3125 C12.23970703 28.51326172 12.23970703 28.51326172 12.29296875 29.73828125 C12 32 12 32 10.61328125 33.79296875 C9 35 9 35 7 35 C7 35.66 7 36.32 7 37 C1.90183724 38.69938759 -2.38656926 38.63928388 -7.3125 36.6875 C-11.68017366 33.94500724 -11.68017366 33.94500724 -13 32 C-13.6875 28.3125 -13.6875 28.3125 -14 25 C-13.01 24.67 -12.02 24.34 -11 24 C-10.79503906 24.56589844 -10.59007812 25.13179687 -10.37890625 25.71484375 C-10.10949219 26.44832031 -9.84007812 27.18179688 -9.5625 27.9375 C-9.29566406 28.66839844 -9.02882812 29.39929688 -8.75390625 30.15234375 C-8.14613052 31.98305678 -8.14613052 31.98305678 -7 33 C-5.04469236 33.12548989 -3.08429521 33.17575363 -1.125 33.1875 C-0.05507813 33.20167969 1.01484375 33.21585938 2.1171875 33.23046875 C5.19796434 33.2194778 5.19796434 33.2194778 8 31 C8.2502157 27.91634129 8.2502157 27.91634129 8 25 C3.15401948 22.78770455 -1.60909437 21.1889319 -6.765625 19.84375 C-9.2585835 18.90235309 -10.4269952 18.14545908 -12 16 C-12.67804953 12.93182588 -12.58517554 10.08192453 -12 7 C-9.23772878 3.65179246 -7.44525847 3.08759183 -3.1875 2.25 C-2.135625 2.1675 -1.08375 2.085 0 2 C0 1.34 0 0.68 0 0 Z " fill="#F9F7F6" transform="translate(257,96)"/>
<path d="M0 0 C1.65 0 3.3 0 5 0 C5 0.66 5 1.32 5 2 C6.65 2 8.3 2 10 2 C10 2.66 10 3.32 10 4 C10.99 3.67 11.98 3.34 13 3 C15.1875 3.4375 15.1875 3.4375 17 4 C16.01 4 15.02 4 14 4 C14.36351562 4.80219971 14.36351562 4.80219971 14.734375 5.62060547 C15.82677465 8.03701451 16.91344904 10.45595579 18 12.875 C18.3815625 13.71675781 18.763125 14.55851562 19.15625 15.42578125 C19.69765625 16.63427734 19.69765625 16.63427734 20.25 17.8671875 C20.58515625 18.61081543 20.9203125 19.35444336 21.265625 20.12060547 C22 22 22 22 22 24 C21.34 24 20.68 24 20 24 C20 23.01 20 22.02 20 21 C17.36 21.66 14.72 22.32 12 23 C12.05220703 23.92232422 12.05220703 23.92232422 12.10546875 24.86328125 C12.13253906 25.67152344 12.15960938 26.47976562 12.1875 27.3125 C12.23970703 28.51326172 12.23970703 28.51326172 12.29296875 29.73828125 C12 32 12 32 10.61328125 33.79296875 C9 35 9 35 7 35 C7 35.66 7 36.32 7 37 C1.90183724 38.69938759 -2.38656926 38.63928388 -7.3125 36.6875 C-11.68017366 33.94500724 -11.68017366 33.94500724 -13 32 C-13.6875 28.3125 -13.6875 28.3125 -14 25 C-13.01 24.67 -12.02 24.34 -11 24 C-10.79503906 24.56589844 -10.59007812 25.13179687 -10.37890625 25.71484375 C-10.10949219 26.44832031 -9.84007812 27.18179688 -9.5625 27.9375 C-9.29566406 28.66839844 -9.02882812 29.39929688 -8.75390625 30.15234375 C-8.14613052 31.98305678 -8.14613052 31.98305678 -7 33 C-5.04469236 33.12548989 -3.08429521 33.17575363 -1.125 33.1875 C-0.05507813 33.20167969 1.01484375 33.21585938 2.1171875 33.23046875 C5.19796434 33.2194778 5.19796434 33.2194778 8 31 C8.2502157 27.91634129 8.2502157 27.91634129 8 25 C3.15401948 22.78770455 -1.60909437 21.1889319 -6.765625 19.84375 C-9.2585835 18.90235309 -10.4269952 18.14545908 -12 16 C-12.67804953 12.93182588 -12.58517554 10.08192453 -12 7 C-9.23772878 3.65179246 -7.44525847 3.08759183 -3.1875 2.25 C-2.135625 2.1675 -1.08375 2.085 0 2 C0 1.34 0 0.68 0 0 Z " fill="#F5F3F0" transform="translate(257,96)"/>
<path d="M0 0 C2.5 1.75 2.5 1.75 4 5 C5.03802494 11.26457158 4.83555913 16.50077947 1.375 21.9375 C0.29380221 23.32688969 -0.82971515 24.68477161 -2 26 C-2.71929687 26.82371094 -2.71929687 26.82371094 -3.453125 27.6640625 C-6.09196096 30.25940116 -8.44936576 31.36062432 -12.0625 31.625 C-16 31 -16 31 -19 29.0625 C-21.723788 24.89169963 -21.63237765 21.84268145 -21 17 C-19.59815293 10.52993661 -17.80209672 6.02269771 -12.3125 2.1875 C-7.92744658 -0.35631552 -5.01225282 -0.83537547 0 0 Z " fill="#F38221" transform="translate(448,123)"/>
<path d="M0 0 C3 2 3 2 4 5 C4.08358958 7.21089945 4.10731764 9.42426078 4.09765625 11.63671875 C4.09443359 12.93544922 4.09121094 14.23417969 4.08789062 15.57226562 C4.07953531 16.94401108 4.07107037 18.31575587 4.0625 19.6875 C4.05748335 21.07096195 4.05292073 22.45442563 4.04882812 23.83789062 C4.03702529 27.22530395 4.02056019 30.61263033 4 34 C3.01 34 2.02 34 1 34 C0.67 33.01 0.34 32.02 0 31 C-1.03447266 31.72703125 -1.03447266 31.72703125 -2.08984375 32.46875 C-5.48240749 34.25383052 -7.74746721 34.46463469 -11.5625 34.5 C-13.23505859 34.54640625 -13.23505859 34.54640625 -14.94140625 34.59375 C-18 34 -18 34 -20.375 31.72265625 C-22.79334993 27.67075745 -22.51844873 25.66603856 -22 21 C-20.52881575 17.89416658 -19.52067761 17.1997949 -16.3125 15.96875 C-12.91374684 14.97477502 -9.62866145 14.37552306 -6.125 13.875 C-4.97257812 13.70742187 -3.82015625 13.53984375 -2.6328125 13.3671875 C-1.32957031 13.18542969 -1.32957031 13.18542969 0 13 C0.33 10.36 0.66 7.72 1 5 C-3.62 4.34 -8.24 3.68 -13 3 C-13 3.66 -13 4.32 -13 5 C-13.99 5.66 -14.98 6.32 -16 7 C-16.72965366 9.56282742 -16.72965366 9.56282742 -17 12 C-17.99 12 -18.98 12 -20 12 C-19.83306975 7.74327874 -19.36598105 5.47780859 -16.75 2.0625 C-12.03219104 -1.44413551 -5.55661268 -0.70477731 0 0 Z " fill="#877764" transform="translate(381,99)"/>
<path d="M0 0 C1.051875 -0.02578125 2.10375 -0.0515625 3.1875 -0.078125 C6 0.25 6 0.25 7.875 1.640625 C9 3.25 9 3.25 9 5.25 C9.66 5.25 10.32 5.25 11 5.25 C11 14.82 11 24.39 11 34.25 C10.01 34.25 9.02 34.25 8 34.25 C7.67 32.93 7.34 31.61 7 30.25 C6.2575 30.91 5.515 31.57 4.75 32.25 C0.00306276 35.41841026 -5.54043951 35.11821091 -11 34.25 C-13.75 32.375 -13.75 32.375 -15 29.25 C-15.44952756 25.84875532 -15.63611814 22.63116852 -15 19.25 C-13.09000801 16.76645356 -12.04677335 16.26559112 -9 15.25 C-7.04484389 15.04947117 -5.08563891 14.88690247 -3.125 14.75 C0.66767876 14.4838471 4.28603503 14.07228007 8 13.25 C7.71848913 11.93528432 7.42446661 10.62324233 7.125 9.3125 C6.96257812 8.58160156 6.80015625 7.85070312 6.6328125 7.09765625 C6.17038477 5.04299706 6.17038477 5.04299706 4 4.25 C2.35744209 4.12885079 0.70947522 4.07459233 -0.9375 4.0625 C-2.25041016 4.04123047 -2.25041016 4.04123047 -3.58984375 4.01953125 C-6.26244335 4.08336651 -6.26244335 4.08336651 -9 6.25 C-10.20450304 8.80183404 -10.20450304 8.80183404 -11 11.25 C-11.66 11.25 -12.32 11.25 -13 11.25 C-13.39600661 7.78494217 -13.14386351 6.46827567 -11.1875 3.5 C-7.76376157 -0.02155952 -4.71211601 0.06929582 0 0 Z " fill="#837361" transform="translate(314,98.75)"/>
<path d="M0 0 C2.31 0 4.62 0 7 0 C8.4783226 2.95664519 8.06032783 5.74229737 8 9 C7.67 8.01 7.34 7.02 7 6 C6.34 7.65 5.68 9.3 5 11 C5.66 11.33 6.32 11.66 7 12 C6.01 12 5.02 12 4 12 C4 23.22 4 34.44 4 46 C2.68 46 1.36 46 0 46 C0 35.77 0 25.54 0 15 C-9.20427594 15.13068296 -9.20427594 15.13068296 -13 18 C-15.07852486 21.17151964 -15.29456633 23.89641165 -15.4140625 27.640625 C-15.45273437 28.71054688 -15.49140625 29.78046875 -15.53125 30.8828125 C-15.5621875 31.99398437 -15.593125 33.10515625 -15.625 34.25 C-15.66367187 35.37664062 -15.70234375 36.50328125 -15.7421875 37.6640625 C-15.83637336 40.44254548 -15.92199586 43.22102334 -16 46 C-16.99 46 -17.98 46 -19 46 C-19 34.78 -19 23.56 -19 12 C-18.01 12 -17.02 12 -16 12 C-15.67 13.32 -15.34 14.64 -15 16 C-14.0409375 15.1028125 -14.0409375 15.1028125 -13.0625 14.1875 C-9.1664547 11.4046105 -5.57972789 10.36708295 -1 9 C-0.67 6.03 -0.34 3.06 0 0 Z " fill="#B1A597" transform="translate(352,87)"/>
<path d="M0 0 C2.97 0.495 2.97 0.495 6 1 C5.360625 1.886875 4.72125 2.77375 4.0625 3.6875 C2.19170243 6.69211428 1.40576034 8.5510371 1 12 C1.99 12 2.98 12 4 12 C4 10.35 4 8.7 4 7 C5.32 6.34 6.64 5.68 8 5 C8 4.34 8 3.68 8 3 C9.58294782 2.94562393 11.16644256 2.90703729 12.75 2.875 C13.63171875 2.85179688 14.5134375 2.82859375 15.421875 2.8046875 C18.1135858 3.00860498 19.69904974 3.63448279 22 5 C22 7.64 22 10.28 22 13 C17.26077423 14.79322056 12.56865612 15.65589708 7.5859375 16.4375 C5.0670233 16.98542091 3.19013543 17.65222435 1 19 C-0.53298854 22.06597708 -0.01817126 25.11407846 0.0625 28.4921875 C0.00405295 30.83737555 -0.33345243 32.76081676 -1 35 C-2.875 35.625 -2.875 35.625 -5 36 C-5.66 35.34 -6.32 34.68 -7 34 C-6.01 34 -5.02 34 -4 34 C-4 23.11 -4 12.22 -4 1 C-3.01 1.33 -2.02 1.66 -1 2 C-0.67 1.34 -0.34 0.68 0 0 Z " fill="#FAF8F7" transform="translate(360,99)"/>
<path d="M0 0 C0.99 0 1.98 0 3 0 C3.33 5.28 3.66 10.56 4 16 C4.99 15.01 5.98 14.02 7 13 C7.99 13 8.98 13 10 13 C10 12.34 10 11.68 10 11 C16.12279743 10.5001798 19.10753758 11.54649711 24 15 C26.28538227 18.36367658 26.23302 21.29988035 26.1953125 25.296875 C26.18886719 26.50214844 26.18242187 27.70742187 26.17578125 28.94921875 C26.15902344 30.20347656 26.14226562 31.45773438 26.125 32.75 C26.11597656 34.01972656 26.10695313 35.28945312 26.09765625 36.59765625 C26.07409005 39.73196093 26.04118832 42.86588541 26 46 C25.01 46 24.02 46 23 46 C22.67 36.43 22.34 26.86 22 17 C18.71480525 15.90493508 16.26336585 15.90039392 12.8125 15.9375 C11.72582031 15.94652344 10.63914062 15.95554687 9.51953125 15.96484375 C8.68808594 15.97644531 7.85664063 15.98804687 7 16 C5.29728448 22.74856761 4.60700171 29.1169488 4.375 36.0625 C4.33632813 37.02349609 4.29765625 37.98449219 4.2578125 38.97460938 C4.16461374 41.31622814 4.07880815 43.65786037 4 46 C2.68 46 1.36 46 0 46 C0 30.82 0 15.64 0 0 Z " fill="#988A79" transform="translate(393,87)"/>
<path d="M0 0 C1.32 0.66 2.64 1.32 4 2 C4 2.66 4 3.32 4 4 C4.66 4 5.32 4 6 4 C6.33 3.34 6.66 2.68 7 2 C7 2.66 7 3.32 7 4 C7.66 4 8.32 4 9 4 C9.33 3.01 9.66 2.02 10 1 C10 11.89 10 22.78 10 34 C8.515 34.495 8.515 34.495 7 35 C6.67 35.66 6.34 36.32 6 37 C1.25 36.125 1.25 36.125 -1 35 C-1.33 35.66 -1.66 36.32 -2 37 C-2.66 37 -3.32 37 -4 37 C-4.33 36.34 -4.66 35.68 -5 35 C-8.96 35 -12.92 35 -17 35 C-17 34.67 -17 34.34 -17 34 C-16.43152344 33.97421875 -15.86304688 33.9484375 -15.27734375 33.921875 C-9.47497597 33.49565767 -5.8543149 32.20178217 -1 29 C-1 30.65 -1 32.3 -1 34 C-0.01 34 0.98 34 2 34 C2 24.43 2 14.86 2 5 C1.34 5 0.68 5 0 5 C-0.5625 3.0625 -0.5625 3.0625 -1 1 C-0.67 0.67 -0.34 0.34 0 0 Z " fill="#FAF9F7" transform="translate(323,99)"/>
<path d="M0 0 C4.66234968 2.32469935 4.66234968 2.32469935 6 5 C6.039992 6.99960012 6.04346799 9.00047242 6 11 C5.34 11 4.68 11 4 11 C3.525625 10.030625 3.05125 9.06125 2.5625 8.0625 C1.29806053 5.19522563 1.29806053 5.19522563 0 4 C-1.97619447 3.87485072 -3.95738173 3.8242724 -5.9375 3.8125 C-7.01902344 3.79832031 -8.10054687 3.78414063 -9.21484375 3.76953125 C-12.14044315 3.70951969 -12.14044315 3.70951969 -14 6 C-14.16687448 8.58354218 -14.16687448 8.58354218 -14 11 C-9.10693771 13.71836794 -4.05998738 15.32151324 1.29296875 16.9375 C3.98394388 17.99369803 5.33227768 18.66406571 7 21 C7.55603074 23.70383578 7.43088805 26.27860181 7 29 C5.625 31 5.625 31 4 32 C3.34 32 2.68 32 2 32 C2 32.66 2 33.32 2 34 C-3.09816276 35.69938759 -7.38656926 35.63928388 -12.3125 33.6875 C-16.68017366 30.94500724 -16.68017366 30.94500724 -18 29 C-18.6875 25.3125 -18.6875 25.3125 -19 22 C-18.01 21.67 -17.02 21.34 -16 21 C-15.79503906 21.56589844 -15.59007812 22.13179687 -15.37890625 22.71484375 C-15.10949219 23.44832031 -14.84007812 24.18179688 -14.5625 24.9375 C-14.29566406 25.66839844 -14.02882812 26.39929688 -13.75390625 27.15234375 C-13.14613052 28.98305678 -13.14613052 28.98305678 -12 30 C-10.04469236 30.12548989 -8.08429521 30.17575363 -6.125 30.1875 C-5.05507813 30.20167969 -3.98515625 30.21585938 -2.8828125 30.23046875 C0.19796434 30.2194778 0.19796434 30.2194778 3 28 C3.2502157 24.91634129 3.2502157 24.91634129 3 22 C-1.84598052 19.78770455 -6.60909437 18.1889319 -11.765625 16.84375 C-14.2585835 15.90235309 -15.4269952 15.14545908 -17 13 C-17.67917919 9.92671417 -17.55777456 7.09007109 -17 4 C-13.21250096 -1.54598074 -6.08132473 -0.89764235 0 0 Z " fill="#847362" transform="translate(262,99)"/>
<path d="M0 0 C0 0.33 0 0.66 0 1 C-3.63 1.33 -7.26 1.66 -11 2 C-8.36 2.33 -5.72 2.66 -3 3 C-6.28032215 5.18688143 -7.10540609 5.20572165 -10.875 5.0625 C-14.41419154 4.98488615 -17.55228469 5.08060925 -21 6 C-20.01 7.32 -19.02 8.64 -18 10 C-19.98 10.66 -21.96 11.32 -24 12 C-24 12.66 -24 13.32 -24 14 C-24.66 14 -25.32 14 -26 14 C-26.268125 14.5775 -26.53625 15.155 -26.8125 15.75 C-28.01719859 18.0325868 -29.40798115 19.9737942 -31 22 C-31.33 20.35 -31.66 18.7 -32 17 C-33.65 16.67 -35.3 16.34 -37 16 C-37.66 12.04 -38.32 8.08 -39 4 C-47.58 4 -56.16 4 -65 4 C-65 5.32 -65 6.64 -65 8 C-63.88625 7.95875 -62.7725 7.9175 -61.625 7.875 C-58 8 -58 8 -56 10 C-59.63 9.67 -63.26 9.34 -67 9 C-66.67 7.02 -66.34 5.04 -66 3 C-54.78 3 -43.56 3 -32 3 C-31.505 6.96 -31.505 6.96 -31 11 C-29.6078125 9.6696875 -29.6078125 9.6696875 -28.1875 8.3125 C-19.47936221 0.96555408 -11.22391532 -0.80298281 0 0 Z " fill="#F5974B" transform="translate(416,152)"/>
<path d="M0 0 C0.29216602 4.96682232 0.24708889 8.10349334 -3 12 C-7.76238815 15.21184317 -11.43485501 15.54739131 -17 15 C-19 14 -19 14 -20 12 C-20.51780725 8.44932174 -20.69043126 5.25902171 -18.9375 2.0625 C-13.37272795 -0.98914919 -6.17464067 -0.11181442 0 0 Z " fill="#F4F2EF" transform="translate(382,116)"/>
<path d="M0 0 C0.31378312 5.22971874 -0.09059951 8.58573719 -3 13 C-6.63247844 16.20512803 -10.21436295 16.5821848 -14.90625 16.41796875 C-17 16 -17 16 -19.5625 13.8125 C-21.11947758 10.76623951 -21.68633353 9.34587593 -21 6 C-18.73810923 3.0497077 -17.53859545 2.0977451 -13.8359375 1.42578125 C-12.69382812 1.38839844 -11.55171875 1.35101563 -10.375 1.3125 C-6.75218681 1.17002982 -3.409799 0 0 0 Z " fill="#F5F3F0" transform="translate(322,115)"/>
<path d="M0 0 C0.99 0 1.98 0 3 0 C4.27483211 2.83155031 5.54410981 5.66555888 6.8125 8.5 C7.34713867 9.68722656 7.34713867 9.68722656 7.89257812 10.8984375 C10.11581664 15.8752283 12.13761407 20.87696995 14 26 C17.76476439 20.53650046 19.39323453 14.21045449 21.39453125 7.953125 C21.68714844 7.0765625 21.97976563 6.2 22.28125 5.296875 C22.53970703 4.49604492 22.79816406 3.69521484 23.06445312 2.87011719 C24 1 24 1 27 0 C26.45272117 5.06071953 25.29749633 9.19645221 23.3125 13.875 C21.54973799 18.08341995 19.86869027 22.28844234 18.41015625 26.61328125 C18.15258545 27.37592285 17.89501465 28.13856445 17.62963867 28.92431641 C17.13715127 30.40130062 16.6537984 31.88137121 16.1809082 33.36474609 C14.80460146 37.46780874 13.51748892 40.38528866 10 43 C6.25 43.25 6.25 43.25 3 43 C3 42.34 3 41.68 3 41 C4.98 41 6.96 41 9 41 C11.1884855 35.39200591 11.85409065 30.66407723 9.99023438 24.8503418 C9.52939453 23.81047119 9.06855469 22.77060059 8.59375 21.69921875 C8.09746094 20.55775391 7.60117187 19.41628906 7.08984375 18.24023438 C6.56519531 17.06783203 6.04054688 15.89542969 5.5 14.6875 C4.46588121 12.33850044 3.43448289 9.98830071 2.40625 7.63671875 C1.94541016 6.60248779 1.48457031 5.56825684 1.00976562 4.50268555 C0 2 0 2 0 0 Z " fill="#8B7C6B" transform="translate(271,100)"/>
<path d="M0 0 C2.62728858 0.61642534 5.25153582 1.24267787 7.875 1.875 C8.62136719 2.04902344 9.36773437 2.22304687 10.13671875 2.40234375 C15.7734375 3.7734375 15.7734375 3.7734375 18 6 C18.375 8.9375 18.375 8.9375 18 12 C14.90642772 15.10823376 12.29785674 15.48191519 8 15.5625 C2.44674469 15.42688937 2.44674469 15.42688937 -0.8125 12.3125 C-2.07887034 8.77999327 -2.1909577 7.48126097 -1 4 C-0.65869897 2.66868392 -0.3240432 1.33562154 0 0 Z " fill="#F8F6F3" transform="translate(248,115)"/>
<path d="M0 0 C0.66 0 1.32 0 2 0 C2.04667978 14.43804531 2.0818362 28.87607896 2.10362434 43.31418419 C2.11394563 50.01774998 2.12802217 56.72126895 2.15087891 63.42480469 C2.17254588 69.88922246 2.18455562 76.35359149 2.18975449 82.81804276 C2.19346132 85.28930046 2.20069939 87.76055539 2.21146011 90.23179245 C2.22589332 93.68241984 2.22798137 97.13284357 2.22705078 100.58349609 C2.23783661 102.12960823 2.23783661 102.12960823 2.24884033 103.70695496 C2.246091 104.64367538 2.24334167 105.58039581 2.24050903 106.54550171 C2.24235262 107.36221029 2.24419621 108.17891888 2.24609566 109.02037621 C2 111 2 111 0 113 C0 111.02 0 109.04 0 107 C-0.33 107 -0.66 107 -1 107 C-1.02314064 93.49189968 -1.04092391 79.98380406 -1.05181217 66.47568798 C-1.05703721 60.20375558 -1.06412804 53.93183672 -1.07543945 47.65991211 C-1.08628172 41.61046019 -1.0922797 35.56102132 -1.09487724 29.51156044 C-1.09672906 27.20022692 -1.10034505 24.88889414 -1.10573006 22.57756615 C-1.11295821 19.34751196 -1.11399018 16.1175121 -1.11352539 12.88745117 C-1.11712067 11.92576019 -1.12071594 10.96406921 -1.12442017 9.97323608 C-1.1230455 9.09404007 -1.12167084 8.21484406 -1.12025452 7.30900574 C-1.12117631 6.54483935 -1.1220981 5.78067297 -1.12304783 4.99335003 C-1 3 -1 3 0 0 Z " fill="#F9F5F1" transform="translate(267,165)"/>
<path d="M0 0 C0.33 0 0.66 0 1 0 C1.268125 1.19625 1.53625 2.3925 1.8125 3.625 C2.96104904 8.16297347 4.2657641 12.30971938 7.6953125 15.65234375 C10.76472915 17.44717213 12.966515 17.33104323 16.5 17.25 C17.6240625 17.23453125 18.748125 17.2190625 19.90625 17.203125 C22.43957988 17.03679526 24.58419493 16.73421527 27 16 C27 16.66 27 17.32 27 18 C26.08476562 18.13277344 25.16953125 18.26554687 24.2265625 18.40234375 C23.03804687 18.57894531 21.84953125 18.75554687 20.625 18.9375 C19.44164062 19.11152344 18.25828125 19.28554687 17.0390625 19.46484375 C14.09297619 19.83462786 14.09297619 19.83462786 12 21 C12 21.66 12 22.32 12 23 C16.29 23 20.58 23 25 23 C25 23.33 25 23.66 25 24 C13.98082254 24.50923028 4.13004238 24.06502119 -6 19 C-6 18.34 -6 17.68 -6 17 C-7.32 16.67 -8.64 16.34 -10 16 C-10 15.34 -10 14.68 -10 14 C-10.66 13.67 -11.32 13.34 -12 13 C-10.0625 12.4375 -10.0625 12.4375 -8 12 C-7.67 12.33 -7.34 12.66 -7 13 C-6.01 13.33 -5.02 13.66 -4 14 C-3.67 12.02 -3.34 10.04 -3 8 C-2.34 8.66 -1.68 9.32 -1 10 C-0.67 6.7 -0.34 3.4 0 0 Z " fill="#F3862A" transform="translate(140,216)"/>
<path d="M0 0 C0.33 0 0.66 0 1 0 C1 1.98 1 3.96 1 6 C2.32 6 3.64 6 5 6 C5 6.99 5 7.98 5 9 C6.32 9 7.64 9 9 9 C9 9.66 9 10.32 9 11 C1.0145828 14.9927086 -10.37992861 15.75486817 -19 13 C-19 11.02 -19 9.04 -19 7 C-17.80503906 7.08701172 -17.80503906 7.08701172 -16.5859375 7.17578125 C-9.45941229 7.67857302 -9.45941229 7.67857302 -3.3125 4.625 C-1.01439825 2.24185729 -1.01439825 2.24185729 0 0 Z " fill="#F4882E" transform="translate(319,227)"/>
<path d="M0 0 C2 3 2 3 3.5 6.125 C4.68898301 9.08870808 4.68898301 9.08870808 7 10 C9.2072923 10.07092842 11.41667452 10.08415025 13.625 10.0625 C15.40777344 10.04896484 15.40777344 10.04896484 17.2265625 10.03515625 C18.59941406 10.01775391 18.59941406 10.01775391 20 10 C20.04254356 11.99954746 20.04080783 14.00041636 20 16 C18.26732639 17.73267361 16.03929201 17.16487197 13.72900391 17.18994141 C13.01405762 17.18913574 12.29911133 17.18833008 11.5625 17.1875 C10.478479 17.1862915 10.478479 17.1862915 9.37255859 17.18505859 C-4.97820009 17.02179991 -4.97820009 17.02179991 -9 13 C-8.01 13 -7.02 13 -6 13 C-5.67 11.68 -5.34 10.36 -5 9 C-3.02 9 -1.04 9 1 9 C0.67 6.03 0.34 3.06 0 0 Z " fill="#F2903E" transform="translate(237,224)"/>
<path d="M0 0 C1.65 0 3.3 0 5 0 C5 0.66 5 1.32 5 2 C6.65 2 8.3 2 10 2 C10 2.66 10 3.32 10 4 C10.99 3.67 11.98 3.34 13 3 C15.1875 3.4375 15.1875 3.4375 17 4 C16.01 4 15.02 4 14 4 C14.36351562 4.80219971 14.36351562 4.80219971 14.734375 5.62060547 C15.82677465 8.03701451 16.91344904 10.45595579 18 12.875 C18.3815625 13.71675781 18.763125 14.55851562 19.15625 15.42578125 C19.5171875 16.23144531 19.878125 17.03710938 20.25 17.8671875 C20.58515625 18.61081543 20.9203125 19.35444336 21.265625 20.12060547 C22 22 22 22 22 24 C21.34 24 20.68 24 20 24 C20 23.01 20 22.02 20 21 C19.071875 21.309375 18.14375 21.61875 17.1875 21.9375 C15.125 22.625 13.0625 23.3125 11 24 C9.64512512 23.02938585 8.31468226 22.02439658 7 21 C4.42967443 20.01310803 4.42967443 20.01310803 1.75 19.3125 C0.85796875 19.06113281 -0.0340625 18.80976562 -0.953125 18.55078125 C-1.62859375 18.36902344 -2.3040625 18.18726562 -3 18 C-3 17.67 -3 17.34 -3 17 C1.47427924 16.91051442 5.60563789 17.14256349 10 18 C11.53166168 13.91556885 10.63081652 10.20544343 10 6 C5.1956792 3.5978396 0.26896105 3.38877771 -5 3 C-5 2.67 -5 2.34 -5 2 C-3.35 2 -1.7 2 0 2 C0 1.34 0 0.68 0 0 Z " fill="#F8F9F8" transform="translate(257,96)"/>
<path d="M0 0 C0.33 0.99 0.66 1.98 1 3 C1.33 3.66 1.66 4.32 2 5 C1.67 5.99 1.34 6.98 1 8 C-0.65 8.33 -2.3 8.66 -4 9 C-3.34 9.33 -2.68 9.66 -2 10 C-2 10.66 -2 11.32 -2 12 C-2.99 12 -3.98 12 -5 12 C-5.33 31.8 -5.66 51.6 -6 72 C-6.33 72 -6.66 72 -7 72 C-7 52.86 -7 33.72 -7 14 C-10.63 14 -14.26 14 -18 14 C-18 11.69 -18 9.38 -18 7 C-11.565 6.505 -11.565 6.505 -5 6 C-5 5.34 -5 4.68 -5 4 C-4.01 4 -3.02 4 -2 4 C-1.34 2.68 -0.68 1.36 0 0 Z " fill="#F29345" transform="translate(221,148)"/>
<path d="M0 0 C1.58294782 -0.05437607 3.16644256 -0.09296271 4.75 -0.125 C5.63171875 -0.14820312 6.5134375 -0.17140625 7.421875 -0.1953125 C10.1135858 0.00860498 11.69904974 0.63448279 14 2 C14.09765625 8.15234375 14.09765625 8.15234375 14 10 C12.09582587 11.90417413 8.73473535 11.35309456 6.1875 11.5 C0.52075182 11.80256389 0.52075182 11.80256389 -5 13 C-4.67 12.46375 -4.34 11.9275 -4 11.375 C-2.77300796 8.4608939 -2.85766714 6.13132292 -3 3 C-2.01 2.67 -1.02 2.34 0 2 C0 1.34 0 0.68 0 0 Z " fill="#F8F6F5" transform="translate(368,102)"/>
<path d="M0 0 C1.32 0 2.64 0 4 0 C4.33 0.99 4.66 1.98 5 3 C5.66 3 6.32 3 7 3 C6.34 5.64 5.68 8.28 5 11 C5.66 11 6.32 11 7 11 C7.33 10.34 7.66 9.68 8 9 C8 10.65 8 12.3 8 14 C12.29 14 16.58 14 21 14 C21 14.33 21 14.66 21 15 C19.78763672 15.05607422 19.78763672 15.05607422 18.55078125 15.11328125 C17.48214844 15.17902344 16.41351563 15.24476562 15.3125 15.3125 C14.25675781 15.37050781 13.20101563 15.42851563 12.11328125 15.48828125 C8.63115957 16.06062496 6.67259351 16.6811321 4 19 C3.39518228 21.96381518 3.39518228 21.96381518 3.6875 25.1875 C3.75517578 26.81751953 3.75517578 26.81751953 3.82421875 28.48046875 C3.88222656 29.31191406 3.94023437 30.14335937 4 31 C2.68 31 1.36 31 0 31 C0.32552083 29.01432292 0.65104167 27.02864583 0.9765625 25.04296875 C1.19577848 22.68244176 1.19577848 22.68244176 -1 20 C-1.99 20.33 -2.98 20.66 -4 21 C-3.2531799 16.57916835 -1.88289994 12.41843259 -0.4375 8.1875 C-0.20353516 7.49462891 0.03042969 6.80175781 0.27148438 6.08789062 C0.84491676 4.39099886 1.42208169 2.69536922 2 1 C1.34 0.67 0.68 0.34 0 0 Z " fill="#EBE6E0" transform="translate(296,99)"/>
<path d="M0 0 C10.89 0 21.78 0 33 0 C33 32.01 33 64.02 33 97 C32.67 97 32.34 97 32 97 C32 65.32 32 33.64 32 1 C22.76 1.33 13.52 1.66 4 2 C3.01 1.67 2.02 1.34 1 1 C1 1.99 1 2.98 1 4 C3.97 4.33 6.94 4.66 10 5 C10 4.34 10 3.68 10 3 C10.99 3 11.98 3 13 3 C12.67 5.64 12.34 8.28 12 11 C11.67 10.01 11.34 9.02 11 8 C7.45779454 6.17829434 3.92234364 5.54730376 0 5 C0 3.35 0 1.7 0 0 Z " fill="#EE843B" transform="translate(107,119)"/>
<path d="M0 0 C3.3 0 6.6 0 10 0 C10 7.92 10 15.84 10 24 C14.95 24 19.9 24 25 24 C25 26.31 25 28.62 25 31 C23.68 30.67 22.36 30.34 21 30 C21.99 30 22.98 30 24 30 C24 28.35 24 26.7 24 25 C18.06 25.33 12.12 25.66 6 26 C5.67 24.68 5.34 23.36 5 22 C5.99 22.33 6.98 22.66 8 23 C8 22.34 8 21.68 8 21 C7.34 21 6.68 21 6 21 C5.94574774 18.60385874 5.90620973 16.20896147 5.875 13.8125 C5.85824219 13.13896484 5.84148437 12.46542969 5.82421875 11.77148438 C5.78461326 7.71192193 6.19979998 4.65001185 8 1 C7.01 1.495 7.01 1.495 6 2 C5.67 2.99 5.34 3.98 5 5 C4.01 5 3.02 5 2 5 C2.66 7.64 3.32 10.28 4 13 C3.34 13 2.68 13 2 13 C0.72201065 8.28741428 0 4.95734952 0 0 Z " fill="#F29444" transform="translate(227,131)"/>
<path d="M0 0 C0 0.66 0 1.32 0 2 C0.598125 2.04125 1.19625 2.0825 1.8125 2.125 C4 3 4 3 5.8125 5.8125 C6.98068499 8.94815444 7.26950234 9.9993581 6 13 C6 12.01 6 11.02 6 10 C5.34 10 4.68 10 4 10 C4 8.68 4 7.36 4 6 C3.67 6.66 3.34 7.32 3 8 C-3.27 7.67 -9.54 7.34 -16 7 C-16.33 8.32 -16.66 9.64 -17 11 C-18.32 11 -19.64 11 -21 11 C-20 9 -19 7 -18 5 C-17.34 5 -16.68 5 -16 5 C-16 4.34 -16 3.68 -16 3 C-10.62669111 -0.39366878 -6.13053511 -0.32712342 0 0 Z " fill="#FBEFE2" transform="translate(408,161)"/>
<path d="M0 0 C0.99 0 1.98 0 3 0 C3.33 1.32 3.66 2.64 4 4 C4.70125 3.34 5.4025 2.68 6.125 2 C9.43460229 -0.30233203 11.06225823 -0.36630156 15 0 C15 0.66 15 1.32 15 2 C13.01432292 2.61848958 11.02864583 3.23697917 9.04296875 3.85546875 C6.23826455 5.42674663 5.43919055 7.14363711 4 10 C3.50383495 12.79238688 3.50383495 12.79238688 3.48828125 15.73828125 C3.45283203 16.80498047 3.41738281 17.87167969 3.38085938 18.97070312 C3.35830078 20.07349609 3.33574219 21.17628906 3.3125 22.3125 C3.27833984 23.43462891 3.24417969 24.55675781 3.20898438 25.71289062 C3.12670399 28.47516062 3.05748719 31.23712113 3 34 C2.01 34 1.02 34 0 34 C0 22.78 0 11.56 0 0 Z " fill="#8B7D6B" transform="translate(333,99)"/>
<path d="M0 0 C0.66 0 1.32 0 2 0 C2.20496094 0.56589844 2.40992188 1.13179688 2.62109375 1.71484375 C2.89050781 2.44832031 3.15992188 3.18179688 3.4375 3.9375 C3.83775391 5.03384766 3.83775391 5.03384766 4.24609375 6.15234375 C4.85386948 7.98305678 4.85386948 7.98305678 6 9 C7.95530764 9.12548989 9.91570479 9.17575363 11.875 9.1875 C12.94492187 9.20167969 14.01484375 9.21585938 15.1171875 9.23046875 C18.19796434 9.2194778 18.19796434 9.2194778 21 7 C21.165 6.175 21.33 5.35 21.5 4.5 C21.665 3.675 21.83 2.85 22 2 C22.99 1.34 23.98 0.68 25 0 C25.36717663 7.4659249 25.36717663 7.4659249 23.625 10 C22 11 22 11 20 11 C20 11.66 20 12.32 20 13 C14.90183724 14.69938759 10.61343074 14.63928388 5.6875 12.6875 C1.31982634 9.94500724 1.31982634 9.94500724 0 8 C-0.75 4.375 -0.75 4.375 -1 1 C-0.67 0.67 -0.34 0.34 0 0 Z " fill="#948574" transform="translate(244,120)"/>
<path d="M0 0 C0.33 1.32 0.66 2.64 1 4 C8.26 3.67 15.52 3.34 23 3 C23.33 2.34 23.66 1.68 24 1 C24 1.66 24 2.32 24 3 C27.3 3.33 30.6 3.66 34 4 C34 5.98 34 7.96 34 10 C19.15 10 4.3 10 -11 10 C-11 8.02 -11 6.04 -11 4 C-7.7 3.67 -4.4 3.34 -1 3 C-0.67 2.01 -0.34 1.02 0 0 Z M5.875 4.4375 C4.33075014 4.49084504 2.78647922 4.5435841 1.2421875 4.59570312 C-2.50547677 4.72348716 -6.25279 4.85945572 -10 5 C-10 6.32 -10 7.64 -10 9 C4.19 9 18.38 9 33 9 C33 7.68 33 6.36 33 5 C23.91659009 3.78105334 14.9992452 4.09328138 5.875 4.4375 Z " fill="#F3984E" transform="translate(361,229)"/>
<path d="M0 0 C-0.99 0.99 -1.98 1.98 -3 3 C-3.33 2.34 -3.66 1.68 -4 1 C-7.44771082 0.03876753 -10.6684823 -0.09983832 -14.23046875 -0.02734375 C-15.19791016 -0.01509766 -16.16535156 -0.00285156 -17.16210938 0.00976562 C-19.19082309 0.04512732 -21.21947478 0.08423272 -23.24804688 0.12695312 C-24.21162109 0.13791016 -25.17519531 0.14886719 -26.16796875 0.16015625 C-27.04735107 0.17699463 -27.9267334 0.19383301 -28.83276367 0.21118164 C-31 0 -31 0 -33 -2 C-21.20319797 -7.20447148 -11.28280448 -5.42815336 0 0 Z " fill="#F28930" transform="translate(332,159)"/>
<path d="M0 0 C3 2 3 2 3.51171875 4.1640625 C3.56972656 4.97617188 3.62773437 5.78828125 3.6875 6.625 C3.78611328 7.85089844 3.78611328 7.85089844 3.88671875 9.1015625 C3.92410156 9.72804688 3.96148437 10.35453125 4 11 C3.01 11.33 2.02 11.66 1 12 C1 9.69 1 7.38 1 5 C-3.62 4.34 -8.24 3.68 -13 3 C-13 3.66 -13 4.32 -13 5 C-13.99 5.66 -14.98 6.32 -16 7 C-16.72965366 9.56282742 -16.72965366 9.56282742 -17 12 C-17.99 12 -18.98 12 -20 12 C-19.83306975 7.74327874 -19.36598105 5.47780859 -16.75 2.0625 C-12.03219104 -1.44413551 -5.55661268 -0.70477731 0 0 Z " fill="#887967" transform="translate(381,99)"/>
<path d="M0 0 C0 0.33 0 0.66 0 1 C-3.63 1.33 -7.26 1.66 -11 2 C-8.36 2.33 -5.72 2.66 -3 3 C-6.28032215 5.18688143 -7.10540609 5.20572165 -10.875 5.0625 C-14.41419154 4.98488615 -17.55228469 5.08060925 -21 6 C-20.01 7.32 -19.02 8.64 -18 10 C-19.98 10.66 -21.96 11.32 -24 12 C-24 12.66 -24 13.32 -24 14 C-24.66 14 -25.32 14 -26 14 C-26.33 14.66 -26.66 15.32 -27 16 C-28 12.125 -28 12.125 -28 11 C-28.66 10.67 -29.32 10.34 -30 10 C-21.09241436 1.57390547 -12.125591 -0.86749061 0 0 Z " fill="#F28830" transform="translate(416,152)"/>
<path d="M0 0 C0.33 0 0.66 0 1 0 C1.43162079 8.42859496 1.73791877 15.73196815 -3 23 C-5.125 25.3125 -5.125 25.3125 -7 27 C-7.66 28.32 -8.32 29.64 -9 31 C-12.3 30.34 -15.6 29.68 -19 29 C-19 28.67 -19 28.34 -19 28 C-20.65 27.67 -22.3 27.34 -24 27 C-23.67 25.68 -23.34 24.36 -23 23 C-21.515 23.99 -21.515 23.99 -20 25 C-16.1008649 25.51988468 -13.52049623 25.86141016 -10.0625 23.90234375 C-5.01048593 19.81935824 -1.50093487 15.38343295 -0.5390625 8.88671875 C-0.2812611 5.92200266 -0.09766621 2.97393612 0 0 Z " fill="#FAF5EE" transform="translate(452,128)"/>
<path d="M0 0 C1.175625 0.309375 2.35125 0.61875 3.5625 0.9375 C9.24352381 2.2331721 14.94248281 2.4219185 20.7421875 2.65625 C24 3 24 3 27 5 C26.01 5.66 25.02 6.32 24 7 C23.27617533 9.05925139 23.27617533 9.05925139 23 11 C24.32 10.34 25.64 9.68 27 9 C26.34 10.98 25.68 12.96 25 15 C21.66666667 11.66666667 18.33333333 8.33333333 15 5 C9.78778188 4.37268879 4.70330431 4.49157103 0 7 C0 4.69 0 2.38 0 0 Z " fill="#F18831" transform="translate(149,156)"/>
<path d="M0 0 C1.134375 0.020625 2.26875 0.04125 3.4375 0.0625 C3.1075 1.0525 2.7775 2.0425 2.4375 3.0625 C3.0975 3.0625 3.7575 3.0625 4.4375 3.0625 C4.4375 2.4025 4.4375 1.7425 4.4375 1.0625 C7.30474686 1.63594937 8.2989515 1.9239515 10.4375 4.0625 C9.73625 4.31 9.035 4.5575 8.3125 4.8125 C5.28671039 6.02725048 5.28671039 6.02725048 2.25 8.1875 C-0.5625 10.0625 -0.5625 10.0625 -2.5625 10.0625 C-2.5625 7.7525 -2.5625 5.4425 -2.5625 3.0625 C-13.4525 3.0625 -24.3425 3.0625 -35.5625 3.0625 C-35.5625 2.7325 -35.5625 2.4025 -35.5625 2.0625 C-34.62865479 2.03744385 -33.69480957 2.0123877 -32.73266602 1.98657227 C-29.27924811 1.89163072 -25.8260104 1.79238742 -22.37280273 1.69018555 C-20.87610731 1.64678187 -19.37936061 1.60511087 -17.88256836 1.56518555 C-15.73535688 1.50761384 -13.58840479 1.44388284 -11.44140625 1.37890625 C-10.1479126 1.34224854 -8.85441895 1.30559082 -7.52172852 1.26782227 C-3.8425884 1.01254986 -3.90809449 0.06856306 0 0 Z " fill="#FCF5ED" transform="translate(293.5625,151.9375)"/>
<path d="M0 0 C10.89 0 21.78 0 33 0 C33 2.31 33 4.62 33 7 C33.66 7.33 34.32 7.66 35 8 C34.01 8 33.02 8 32 8 C32 5.69 32 3.38 32 1 C26.06 1.33 20.12 1.66 14 2 C14 2.66 14 3.32 14 4 C9.71 4 5.42 4 1 4 C1 4.66 1 5.32 1 6 C4.3 5.67 7.6 5.34 11 5 C10.67 6.65 10.34 8.3 10 10 C9.46375 9.690625 8.9275 9.38125 8.375 9.0625 C5.6015043 7.82172561 2.99957163 7.4090325 0 7 C0 4.69 0 2.38 0 0 Z " fill="#F49A50" transform="translate(258,155)"/>
<path d="M0 0 C0.5259375 0.32613281 1.051875 0.65226563 1.59375 0.98828125 C4.68421949 2.28768319 7.15605742 2.22968276 10.5 2.1875 C11.6240625 2.18105469 12.748125 2.17460937 13.90625 2.16796875 C16.45563254 2.0295553 18.5737182 1.74334614 21 1 C21 1.66 21 2.32 21 3 C20.08476562 3.13277344 19.16953125 3.26554688 18.2265625 3.40234375 C17.03804687 3.57894531 15.84953125 3.75554687 14.625 3.9375 C13.44164062 4.11152344 12.25828125 4.28554687 11.0390625 4.46484375 C8.09297619 4.83462786 8.09297619 4.83462786 6 6 C6 6.66 6 7.32 6 8 C10.29 8 14.58 8 19 8 C19 8.33 19 8.66 19 9 C7.98082254 9.50923028 -1.86995762 9.06502119 -12 4 C-12 3.34 -12 2.68 -12 2 C-10.35 1.67 -8.7 1.34 -7 1 C-7.99 1.495 -7.99 1.495 -9 2 C-9 2.66 -9 3.32 -9 4 C-3.71800407 5.19988045 -3.71800407 5.19988045 1 3 C0.67 2.01 0.34 1.02 0 0 Z " fill="#F29245" transform="translate(146,231)"/>
<path d="M0 0 C1.765625 1.41015625 1.765625 1.41015625 3 3 C3 3.66 3 4.32 3 5 C1.84371094 5.19916016 1.84371094 5.19916016 0.6640625 5.40234375 C-0.33882813 5.57894531 -1.34171875 5.75554687 -2.375 5.9375 C-3.87160156 6.19853516 -3.87160156 6.19853516 -5.3984375 6.46484375 C-7.96909656 6.87712062 -7.96909656 6.87712062 -10 8 C-10 6.35 -10 4.7 -10 3 C-10.4021875 3.86625 -10.4021875 3.86625 -10.8125 4.75 C-12.02929189 7.05550043 -13.30333879 9.02056192 -15 11 C-15.66 11 -16.32 11 -17 11 C-16.8882925 7.20194492 -15.64019694 5.25452751 -13 2.6875 C-9.00717478 -0.51335989 -4.97677082 -1.2441927 0 0 Z " fill="#FAF3EB" transform="translate(313,161)"/>
<path d="M0 0 C0.33 0 0.66 0 1 0 C1 9.57 1 19.14 1 29 C0.01 29 -0.98 29 -2 29 C-2.33 27.68 -2.66 26.36 -3 25 C-3.825 25.66 -4.65 26.32 -5.5 27 C-9.34492481 29.61234126 -12.45655064 29.31334134 -17 29 C-15.66666667 28.33333333 -14.33333333 27.66666667 -13 27 C-11.96875 26.46375 -10.9375 25.9275 -9.875 25.375 C-7 24 -7 24 -5 24 C-4.34 22.02 -3.68 20.04 -3 18 C-2.34 18.66 -1.68 19.32 -1 20 C-0.67 13.4 -0.34 6.8 0 0 Z " fill="#8F8170" transform="translate(324,104)"/>
<path d="M0 0 C0.33 0 0.66 0 1 0 C2.63106796 19.10679612 2.63106796 19.10679612 1 24 C1.66 24 2.32 24 3 24 C3 24.66 3 25.32 3 26 C1.125 27.0625 1.125 27.0625 -1 28 C-1.66 27.67 -2.32 27.34 -3 27 C-3.33 27.66 -3.66 28.32 -4 29 C-4.66 29 -5.32 29 -6 29 C-6.33 28.34 -6.66 27.68 -7 27 C-10.96 27 -14.92 27 -19 27 C-19 26.67 -19 26.34 -19 26 C-18.43152344 25.97421875 -17.86304688 25.9484375 -17.27734375 25.921875 C-11.47497597 25.49565767 -7.8543149 24.20178217 -3 21 C-3 22.65 -3 24.3 -3 26 C-2.01 26 -1.02 26 0 26 C0 17.42 0 8.84 0 0 Z " fill="#F3EDE6" transform="translate(325,107)"/>
<path d="M0 0 C1.051875 -0.02578125 2.10375 -0.0515625 3.1875 -0.078125 C6 0.25 6 0.25 7.875 1.765625 C8.24625 2.25546875 8.6175 2.7453125 9 3.25 C8.34 4.57 7.68 5.89 7 7.25 C6.608125 6.76144531 6.21625 6.27289063 5.8125 5.76953125 C3.43613383 3.77727599 2.06396146 3.87822694 -1 3.9375 C-1.86625 3.94136719 -2.7325 3.94523437 -3.625 3.94921875 C-6.26417937 4.1041783 -6.26417937 4.1041783 -9 6.25 C-10.20450304 8.80183404 -10.20450304 8.80183404 -11 11.25 C-11.66 11.25 -12.32 11.25 -13 11.25 C-13.39600661 7.78494217 -13.14386351 6.46827567 -11.1875 3.5 C-7.76376157 -0.02155952 -4.71211601 0.06929582 0 0 Z " fill="#8F8172" transform="translate(314,98.75)"/>
<path d="M0 0 C0 1.65 0 3.3 0 5 C-2.46009963 6.23004981 -4.13172806 6.13314027 -6.875 6.125 C-7.73867187 6.12757813 -8.60234375 6.13015625 -9.4921875 6.1328125 C-11.82133858 6.00946182 -13.76613245 5.6362281 -16 5 C-17.66519519 4.65939189 -19.33157466 4.32441604 -21 4 C-21 3.34 -21 2.68 -21 2 C-19.865625 2.020625 -18.73125 2.04125 -17.5625 2.0625 C-14.18424326 2.41577477 -14.18424326 2.41577477 -13 1 C-11.19303615 0.76506569 -9.3785882 0.58628226 -7.5625 0.4375 C-6.57378906 0.35371094 -5.58507812 0.26992187 -4.56640625 0.18359375 C-3.04692417 0.07489412 -1.52336516 0 0 0 Z " fill="#F6801E" transform="translate(256,234)"/>
<path d="M0 0 C2.97 0.495 2.97 0.495 6 1 C5.360625 1.886875 4.72125 2.77375 4.0625 3.6875 C2.19170243 6.69211428 1.40576034 8.5510371 1 12 C1.99 12 2.98 12 4 12 C4 10.35 4 8.7 4 7 C4.66 7 5.32 7 6 7 C6.20086443 10.71599191 6.1519437 11.77208445 4 15 C4.99 14.67 5.98 14.34 7 14 C8.56118428 13.93259135 10.1250252 13.91485544 11.6875 13.9375 C12.89986328 13.95103516 12.89986328 13.95103516 14.13671875 13.96484375 C15.05904297 13.98224609 15.05904297 13.98224609 16 14 C16 14.33 16 14.66 16 15 C14.87851562 15.19916016 14.87851562 15.19916016 13.734375 15.40234375 C12.25710938 15.66724609 12.25710938 15.66724609 10.75 15.9375 C9.77546875 16.11152344 8.8009375 16.28554687 7.796875 16.46484375 C5.50278205 16.90379729 3.25708029 17.40348592 1 18 C1 16.35 1 14.7 1 13 C0.34 13 -0.32 13 -1 13 C-1.02708567 11.39592672 -1.04643483 9.7917215 -1.0625 8.1875 C-1.07410156 7.29417969 -1.08570313 6.40085937 -1.09765625 5.48046875 C-1 3 -1 3 0 0 Z " fill="#E9E2DE" transform="translate(360,99)"/>
<path d="M0 0 C0.66 0 1.32 0 2 0 C2.33 0.99 2.66 1.98 3 3 C3.99 2.01 4.98 1.02 6 0 C6.33 3.3 6.66 6.6 7 10 C6.01 10.495 6.01 10.495 5 11 C5 20.57 5 30.14 5 40 C4.67 40 4.34 40 4 40 C3.98018066 39.40687012 3.96036133 38.81374023 3.93994141 38.20263672 C3.41265005 18.92728763 3.41265005 18.92728763 0 0 Z " fill="#F4A15B" transform="translate(320,168)"/>
<path d="M0 0 C1.65 0 3.3 0 5 0 C5 0.66 5 1.32 5 2 C6.65 2 8.3 2 10 2 C10 2.66 10 3.32 10 4 C10.99 3.67 11.98 3.34 13 3 C15.1875 3.4375 15.1875 3.4375 17 4 C16.01 4 15.02 4 14 4 C14.99 6.97 15.98 9.94 17 13 C16.01 12.67 15.02 12.34 14 12 C14 11.34 14 10.68 14 10 C13.34 9.67 12.68 9.34 12 9 C12 10.65 12 12.3 12 14 C11.67 14 11.34 14 11 14 C10.67 11.36 10.34 8.72 10 6 C5.1956792 3.5978396 0.26896105 3.38877771 -5 3 C-5 2.67 -5 2.34 -5 2 C-3.35 2 -1.7 2 0 2 C0 1.34 0 0.68 0 0 Z " fill="#ECE6E2" transform="translate(257,96)"/>
<path d="M0 0 C10.89 0 21.78 0 33 0 C33 0.33 33 0.66 33 1 C28.92514175 1.16780395 24.8500684 1.32834318 20.7746582 1.48217773 C19.38851232 1.53552222 18.00244111 1.59084559 16.61645508 1.64819336 C14.62341774 1.73031421 12.63006691 1.80471215 10.63671875 1.87890625 C8.83787231 1.94960327 8.83787231 1.94960327 7.00268555 2.02172852 C4 2 4 2 1 1 C1 1.99 1 2.98 1 4 C3.97 4.33 6.94 4.66 10 5 C10 4.34 10 3.68 10 3 C10.99 3 11.98 3 13 3 C12.67 5.64 12.34 8.28 12 11 C11.67 10.01 11.34 9.02 11 8 C7.45779454 6.17829434 3.92234364 5.54730376 0 5 C0 3.35 0 1.7 0 0 Z " fill="#EE8F42" transform="translate(107,119)"/>
<path d="M0 0 C1.32 0 2.64 0 4 0 C4.33 0.99 4.66 1.98 5 3 C5.66 3 6.32 3 7 3 C6.71517632 4.41805831 6.42181856 5.83440379 6.125 7.25 C5.96257812 8.03890625 5.80015625 8.8278125 5.6328125 9.640625 C5.00849925 11.96831144 4.15161458 13.89031952 3 16 C2.34 16 1.68 16 1 16 C-1.03164375 11.82978388 -1.07903196 9.40594062 0.375 5.125 C0.89939914 3.74332228 1.43547925 2.36577601 2 1 C1.34 0.67 0.68 0.34 0 0 Z " fill="#F0ECE7" transform="translate(296,99)"/>
<path d="M0 0 C0.66 0 1.32 0 2 0 C2.33 5.28 2.66 10.56 3 16 C3.99 15.01 4.98 14.02 6 13 C8.74084839 12.19131404 11.10239636 12.13798113 14 12 C14.66 12.66 15.32 13.32 16 14 C14.95199219 14.14695312 14.95199219 14.14695312 13.8828125 14.296875 C12.97273438 14.44640625 12.06265625 14.5959375 11.125 14.75 C9.76761719 14.95882812 9.76761719 14.95882812 8.3828125 15.171875 C5.87253735 15.76701333 5.87253735 15.76701333 4.8046875 17.890625 C4.40636719 18.93476562 4.40636719 18.93476562 4 20 C3.34 20.99 2.68 21.98 2 23 C1.0699111 20.2097333 0.81301231 18.23470458 0.68359375 15.33203125 C0.64169922 14.43935547 0.59980469 13.54667969 0.55664062 12.62695312 C0.51732422 11.69818359 0.47800781 10.76941406 0.4375 9.8125 C0.39431641 8.87212891 0.35113281 7.93175781 0.30664062 6.96289062 C0.20061335 4.64207146 0.09854971 2.32114675 0 0 Z " fill="#827160" transform="translate(394,87)"/>
<path d="M0 0 C2.31 0 4.62 0 7 0 C7 0.66 7 1.32 7 2 C20.86 2.495 20.86 2.495 35 3 C35 3.33 35 3.66 35 4 C23.45 4 11.9 4 0 4 C0 2.68 0 1.36 0 0 Z " fill="#F87E1B" transform="translate(405,234)"/>
<path d="M0 0 C0.99 0.66 1.98 1.32 3 2 C3.1875 5.125 3.1875 5.125 3 8 C2.34 7.01 1.68 6.02 1 5 C0.31550781 5.49113281 -0.36898438 5.98226562 -1.07421875 6.48828125 C-4.58973109 8.30470752 -6.88278142 8.30658238 -10.8125 8.1875 C-12.55466797 8.14689453 -12.55466797 8.14689453 -14.33203125 8.10546875 C-15.21246094 8.07066406 -16.09289062 8.03585938 -17 8 C-17.33 7.34 -17.66 6.68 -18 6 C-17.27554687 5.96261719 -16.55109375 5.92523438 -15.8046875 5.88671875 C-10.25426286 5.50928987 -5.77130372 5.13901561 -1 2 C-0.67 1.34 -0.34 0.68 0 0 Z " fill="#847463" transform="translate(380,125)"/>
<path d="M0 0 C0.99 0.33 1.98 0.66 3 1 C2.01 1.495 2.01 1.495 1 2 C0.65846063 3.66500443 0.32550502 5.33178677 0 7 C-0.66 7.66 -1.32 8.32 -2 9 C-2.37095708 11.42246595 -2.37095708 11.42246595 -2.4140625 14.2265625 C-2.45273437 15.2578125 -2.49140625 16.2890625 -2.53125 17.3515625 C-2.5621875 18.43179688 -2.593125 19.51203125 -2.625 20.625 C-2.66367187 21.71296875 -2.70234375 22.8009375 -2.7421875 23.921875 C-2.83666247 26.61441165 -2.92222431 29.30693757 -3 32 C-3.99 31.34 -4.98 30.68 -6 30 C-5.34 30 -4.68 30 -4 30 C-4.02094727 29.30438965 -4.04189453 28.6087793 -4.06347656 27.89208984 C-4.1469698 24.71987542 -4.19876529 21.54789269 -4.25 18.375 C-4.28351563 17.28058594 -4.31703125 16.18617187 -4.3515625 15.05859375 C-4.42841207 8.71850463 -4.29368613 4.81771869 0 0 Z " fill="#D7D3CD" transform="translate(340,103)"/>
<path d="M0 0 C3.47478479 3.01148016 4.97043629 5.50735835 6 10 C5.625 12.375 5.625 12.375 5 14 C4.01 13.67 3.02 13.34 2 13 C2 11.02 2 9.04 2 7 C0.68 7.33 -0.64 7.66 -2 8 C-1.33333333 5.33333333 -0.66666667 2.66666667 0 0 Z " fill="#F38936" transform="translate(430,160)"/>
<path d="M0 0 C0 0.33 0 0.66 0 1 C-3.63 1.33 -7.26 1.66 -11 2 C-8.36 2.33 -5.72 2.66 -3 3 C-6.2908539 5.1939026 -7.1494598 5.20490753 -10.9375 5.0625 C-14.18783214 4.94974338 -16.87539312 5.06479284 -20 6 C-20 5.01 -20 4.02 -20 3 C-13.45841601 -0.65111665 -7.36120371 -0.29887594 0 0 Z " fill="#F59847" transform="translate(416,152)"/>
<path d="M0 0 C0.99 0.495 0.99 0.495 2 1 C3.37142629 7.71998882 4.14650081 14.70699838 1 21 C0.67 21 0.34 21 0 21 C0 14.07 0 7.14 0 0 Z " fill="#F9E8D6" transform="translate(200,184)"/>
<path d="M0 0 C4 5 4 5 4 9 C3.68848712 11.33634657 3.35840222 13.67038557 3 16 C2.67 16 2.34 16 2 16 C1.67 18.64 1.34 21.28 1 24 C0.67 24 0.34 24 0 24 C0 16.08 0 8.16 0 0 Z " fill="#EE8C37" transform="translate(178,184)"/>
<path d="M0 0 C0.33 0.66 0.66 1.32 1 2 C1.66 2 2.32 2 3 2 C3.33 1.34 3.66 0.68 4 0 C4 1.65 4 3.3 4 5 C8.29 5 12.58 5 17 5 C17 5.33 17 5.66 17 6 C16.20335937 6.03738281 15.40671875 6.07476562 14.5859375 6.11328125 C8.68594268 6.47933932 4.16377623 6.87455649 -1 10 C-1.66 10 -2.32 10 -3 10 C-2.690625 9.401875 -2.38125 8.80375 -2.0625 8.1875 C-0.65979009 5.29956783 0 3.23218633 0 0 Z " fill="#E5DED7" transform="translate(300,108)"/>
<path d="M0 0 C1.98 0.99 1.98 0.99 4 2 C4 1.34 4 0.68 4 0 C4.66 0 5.32 0 6 0 C6 2.31 6 4.62 6 7 C7.98 7 9.96 7 12 7 C10.68 7.33 9.36 7.66 8 8 C8 9.32 8 10.64 8 12 C6.0625 11.625 6.0625 11.625 4 11 C2.73958325 8.4791665 3.33774109 7.64903564 4 5 C3.67 4.34 3.34 3.68 3 3 C2.34 3 1.68 3 1 3 C0.67 4.32 0.34 5.64 0 7 C0 4.69 0 2.38 0 0 Z " fill="#FDECDC" transform="translate(252,155)"/>
<path d="M0 0 C0.33 0 0.66 0 1 0 C1.31563182 5.26053037 0.66590937 8.44573816 -2 13 C-3.98 13 -5.96 13 -8 13 C-8 13.66 -8 14.32 -8 15 C-6.02 15 -4.04 15 -2 15 C-2 15.33 -2 15.66 -2 16 C-4.31 16 -6.62 16 -9 16 C-9 14.68 -9 13.36 -9 12 C-7.68 11.67 -6.36 11.34 -5 11 C-5 10.01 -5 9.02 -5 8 C-3.68 8 -2.36 8 -1 8 C-0.67 5.36 -0.34 2.72 0 0 Z " fill="#E0D9D2" transform="translate(282,128)"/>
<path d="M0 0 C1.23004981 2.46009963 1.13314027 4.13172806 1.125 6.875 C1.12757813 7.73867187 1.13015625 8.60234375 1.1328125 9.4921875 C1.01023921 11.80665971 0.64966445 13.78289116 0 16 C-1.875 16.625 -1.875 16.625 -4 17 C-4.66 16.34 -5.32 15.68 -6 15 C-5.01 15 -4.02 15 -3 15 C-3.05220703 14.00419922 -3.05220703 14.00419922 -3.10546875 12.98828125 C-3.37434095 4.21792619 -3.37434095 4.21792619 0 0 Z " fill="#F2EEEB" transform="translate(359,118)"/>
<path d="M0 0 C0.33 1.32 0.66 2.64 1 4 C1.66 4 2.32 4 3 4 C0.92436975 11.18487395 0.92436975 11.18487395 -2 13 C-5.6875 13.1875 -5.6875 13.1875 -9 13 C-9 12.34 -9 11.68 -9 11 C-7.02 11 -5.04 11 -3 11 C-2.01 7.37 -1.02 3.74 0 0 Z " fill="#9B8D7D" transform="translate(283,130)"/>
<path d="M0 0 C6.27 0.33 12.54 0.66 19 1 C19 1.33 19 1.66 19 2 C18.07058594 2.06058594 17.14117187 2.12117187 16.18359375 2.18359375 C7.05853115 2.79571552 7.05853115 2.79571552 -2 4 C-2 6.31 -2 8.62 -2 11 C-1.34 11.33 -0.68 11.66 0 12 C-0.99 12 -1.98 12 -3 12 C-3 8.7 -3 5.4 -3 2 C-2.01 2 -1.02 2 0 2 C0 1.34 0 0.68 0 0 Z " fill="#F6C59D" transform="translate(151,152)"/>
<path d="M0 0 C1.98 0 3.96 0 6 0 C6 0.66 6 1.32 6 2 C9.3 1.67 12.6 1.34 16 1 C13 4 13 4 9.86328125 4.29296875 C8.69152344 4.25816406 7.51976562 4.22335938 6.3125 4.1875 C4.54326172 4.14689453 4.54326172 4.14689453 2.73828125 4.10546875 C1.38283203 4.05326172 1.38283203 4.05326172 0 4 C0 2.68 0 1.36 0 0 Z " fill="#F47F1C" transform="translate(152,235)"/>
<path d="M0 0 C0.66 0.99 1.32 1.98 2 3 C-0.3396669 4.16983345 -1.83391527 4.1661241 -4.4375 4.1875 C-5.61119141 4.20876953 -5.61119141 4.20876953 -6.80859375 4.23046875 C-9 4 -9 4 -12 2 C-8.07242087 -0.61838609 -4.56228926 -0.36792655 0 0 Z " fill="#F1882F" transform="translate(448,123)"/>
<path d="M0 0 C1.35439668 2.70879335 1.06501451 5.00933268 1 8 C0.34 8 -0.32 8 -1 8 C-1.474375 7.030625 -1.94875 6.06125 -2.4375 5.0625 C-3.70193947 2.19522563 -3.70193947 2.19522563 -5 1 C-6.68183948 0.76712992 -8.3712416 0.58735834 -10.0625 0.4375 C-11.44115234 0.31181641 -11.44115234 0.31181641 -12.84765625 0.18359375 C-13.91306641 0.09271484 -13.91306641 0.09271484 -15 0 C-15 -0.33 -15 -0.66 -15 -1 C-4.17046113 -2.55608908 -4.17046113 -2.55608908 0 0 Z " fill="#8F7E6C" transform="translate(267,102)"/>
<path d="M0 0 C0.85328845 3.4131538 1.16345478 5.97017983 1.1875 9.4375 C1.20167969 10.36433594 1.21585937 11.29117188 1.23046875 12.24609375 C0.98507562 15.17833373 0.22201577 17.33861389 -1 20 C-3.64 19.34 -6.28 18.68 -9 18 C-9 17.67 -9 17.34 -9 17 C-7.02 16.67 -5.04 16.34 -3 16 C-2.01 10.72 -1.02 5.44 0 0 Z " fill="#FDDFC7" transform="translate(427,136)"/>
<path d="M0 0 C2.97 0 5.94 0 9 0 C8.01 0.66 7.02 1.32 6 2 C5.67 2.99 5.34 3.98 5 5 C4.01 5 3.02 5 2 5 C2.66 7.64 3.32 10.28 4 13 C3.34 13 2.68 13 2 13 C-0.28571429 4.57142857 -0.28571429 4.57142857 0 0 Z " fill="#F28B32" transform="translate(227,131)"/>
<path d="M0 0 C2 2 2 2 2.1953125 5.6953125 C2.182009 7.17200108 2.15814835 8.64862358 2.125 10.125 C2.11597656 10.87910156 2.10695313 11.63320312 2.09765625 12.41015625 C2.0740687 14.27357254 2.03819719 16.13682593 2 18 C1.34 18 0.68 18 0 18 C-0.144375 17.236875 -0.28875 16.47375 -0.4375 15.6875 C-0.9632594 12.91827092 -0.9632594 12.91827092 -2 10 C-1.67 9.67 -1.34 9.34 -1 9 C-0.76807135 7.48530552 -0.58784762 5.96245438 -0.4375 4.4375 C-0.35371094 3.61121094 -0.26992188 2.78492187 -0.18359375 1.93359375 C-0.12300781 1.29550781 -0.06242187 0.65742187 0 0 Z " fill="#7B6D59" transform="translate(383,115)"/>
<path d="M0 0 C0.48210937 0.42152344 0.96421875 0.84304687 1.4609375 1.27734375 C2.09257812 1.82519531 2.72421875 2.37304688 3.375 2.9375 C4.00148437 3.48277344 4.62796875 4.02804688 5.2734375 4.58984375 C6.95632334 6.06958624 6.95632334 6.06958624 9 7 C9 7.66 9 8.32 9 9 C9.66 9.33 10.32 9.66 11 10 C10.236875 9.979375 9.47375 9.95875 8.6875 9.9375 C5.89814214 9.87057159 5.89814214 9.87057159 3 11 C3.33 9.35 3.66 7.7 4 6 C2.35 5.67 0.7 5.34 -1 5 C-0.67 3.35 -0.34 1.7 0 0 Z " fill="#FBEFE3" transform="translate(217,228)"/>
<path d="M0 0 C1.18005182 3.68766192 1.20993972 7.15110517 1 11 C0.01 12.485 0.01 12.485 -1 14 C-2.65 13.67 -4.3 13.34 -6 13 C-5.38125 11.96875 -4.7625 10.9375 -4.125 9.875 C-2.29301955 6.68527517 -1.0364253 3.54111979 0 0 Z " fill="#EBEAE3" transform="translate(287,130)"/>
<path d="M0 0 C0.66 0.33 1.32 0.66 2 1 C2.625 3.0625 2.625 3.0625 3 5 C2.67 4.34 2.34 3.68 2 3 C1.4328125 3.32355469 0.865625 3.64710937 0.28125 3.98046875 C-2.17287059 5.07725895 -3.82817009 5.29877485 -6.5 5.3125 C-7.62921875 5.33763672 -7.62921875 5.33763672 -8.78125 5.36328125 C-11.52314463 4.91434428 -12.91930826 3.79223221 -15 2 C-14.16855469 1.93941406 -13.33710938 1.87882812 -12.48046875 1.81640625 C-10.85044922 1.69072266 -10.85044922 1.69072266 -9.1875 1.5625 C-8.10855469 1.48128906 -7.02960938 1.40007812 -5.91796875 1.31640625 C-2.94010095 1.09787539 -2.94010095 1.09787539 0 0 Z " fill="#948371" transform="translate(320,112)"/>
<path d="M0 0 C5.28 0 10.56 0 16 0 C15.01 0.66 14.02 1.32 13 2 C12.67 2.99 12.34 3.98 12 5 C10.68 4.67 9.36 4.34 8 4 C8 3.34 8 2.68 8 2 C5.36 2 2.72 2 0 2 C0 1.34 0 0.68 0 0 Z " fill="#F2852D" transform="translate(400,159)"/>
<path d="M0 0 C0.33 0 0.66 0 1 0 C1.08165496 2.20770805 1.13948488 4.41630425 1.1875 6.625 C1.22230469 7.85476562 1.25710938 9.08453125 1.29296875 10.3515625 C0.89956312 15.25077395 -0.42783594 18.65243081 -4.1875 21.875 C-4.785625 22.24625 -5.38375 22.6175 -6 23 C-6.66 22.67 -7.32 22.34 -8 22 C-7.57847656 21.44570312 -7.15695312 20.89140625 -6.72265625 20.3203125 C-6.17480469 19.59585938 -5.62695312 18.87140625 -5.0625 18.125 C-4.51722656 17.40570313 -3.97195313 16.68640625 -3.41015625 15.9453125 C-0.94343064 12.54246111 -0.74809772 10.04588363 -0.4375 5.875 C-0.35371094 4.77929688 -0.26992188 3.68359375 -0.18359375 2.5546875 C-0.12300781 1.71164063 -0.06242187 0.86859375 0 0 Z " fill="#F9CEA4" transform="translate(452,128)"/>
<path d="M0 0 C0.66 0.66 1.32 1.32 2 2 C3.31747324 2.69748583 4.64914193 3.36959957 6 4 C3.69 5.65 1.38 7.3 -1 9 C-1.28875 8.38125 -1.5775 7.7625 -1.875 7.125 C-2.93720042 4.86674235 -2.93720042 4.86674235 -5 3 C-3.35 2.01 -1.7 1.02 0 0 Z " fill="#F18A33" transform="translate(298,158)"/>
<path d="M0 0 C0 2.64 0 5.28 0 8 C-0.99 8 -1.98 8 -3 8 C-3.33 7.34 -3.66 6.68 -4 6 C-7.96 6 -11.92 6 -16 6 C-16 5.67 -16 5.34 -16 5 C-15.12988281 4.96132812 -15.12988281 4.96132812 -14.2421875 4.921875 C-9.30052622 4.56307451 -3.81596565 0 0 0 Z " fill="#DED6CD" transform="translate(322,128)"/>
<path d="M0 0 C1.65 0.33 3.3 0.66 5 1 C5.33 4.3 5.66 7.6 6 11 C5.01 11.33 4.02 11.66 3 12 C3 9.69 3 7.38 3 5 C1.68 4.34 0.36 3.68 -1 3 C-0.34 2.67 0.32 2.34 1 2 C0.67 1.34 0.34 0.68 0 0 Z " fill="#9B8C7E" transform="translate(379,99)"/>
<path d="M0 0 C4.66283606 3.51582826 7.72210402 6.03648545 9 12 C7.68 12 6.36 12 5 12 C5 10.68 5 9.36 5 8 C4.34 8 3.68 8 3 8 C3 7.34 3 6.68 3 6 C2.01 6 1.02 6 0 6 C0 4.02 0 2.04 0 0 Z " fill="#F28C39" transform="translate(333,160)"/>
<path d="M0 0 C-0.60990891 3.55780196 -1.5783681 6.6828589 -3 10 C-4.98611612 8.01388388 -5.91454712 6.55856751 -7 4 C-7 3.01 -7 2.02 -7 1 C-4.57333205 -0.21333397 -2.66500278 0 0 0 Z " fill="#EEE9E3" transform="translate(289,118)"/>
<path d="M0 0 C2.32590854 3.63423209 2.16265833 6.77088331 2 11 C1.34 11 0.68 11 0 11 C-0.33 12.65 -0.66 14.3 -1 16 C-1.33 16 -1.66 16 -2 16 C-2.2358396 10.22192976 -1.86783046 5.48675196 0 0 Z " fill="#F08D3C" transform="translate(429,133)"/>
<path d="M0 0 C0.99 0 1.98 0 3 0 C4.6875 2 4.6875 2 6 4 C3.5428064 5.5471219 2.367721 6.04484402 -0.5625 5.6875 C-2.38901612 5.17232879 -4.19960942 4.60013019 -6 4 C-6 3.34 -6 2.68 -6 2 C-4.02 1.67 -2.04 1.34 0 1 C0 0.67 0 0.34 0 0 Z " fill="#F57F1B" transform="translate(143,231)"/>
<path d="M0 0 C0.66 0.33 1.32 0.66 2 1 C2 1.99 2 2.98 2 4 C0.68 4.33 -0.64 4.66 -2 5 C-2.33 6.32 -2.66 7.64 -3 9 C-4.32 9 -5.64 9 -7 9 C-6 7 -5 5 -4 3 C-3.34 3 -2.68 3 -2 3 C-2 2.34 -2 1.68 -2 1 C-1.34 0.67 -0.68 0.34 0 0 Z " fill="#F9E4CC" transform="translate(394,163)"/>
<path d="M0 0 C-0.99 0.495 -0.99 0.495 -2 1 C-1.67 2.65 -1.34 4.3 -1 6 C-1.845625 5.360625 -2.69125 4.72125 -3.5625 4.0625 C-6.90728565 1.8033727 -9.97396992 1.32208241 -14 1 C-14 0.67 -14 0.34 -14 0 C-12.41773035 -0.19627391 -10.83410729 -0.38165538 -9.25 -0.5625 C-8.36828125 -0.66691406 -7.4865625 -0.77132812 -6.578125 -0.87890625 C-4.11567549 -0.99456676 -2.33461936 -0.73638695 0 0 Z " fill="#F28933" transform="translate(320,160)"/>
<path d="M0 0 C1.98 0 3.96 0 6 0 C8.32590854 3.63423209 8.16265833 6.77088331 8 11 C7.67 9.68 7.34 8.36 7 7 C6.34 7 5.68 7 5 7 C5 6.34 5 5.68 5 5 C4.34 5 3.68 5 3 5 C1.375 2.5 1.375 2.5 0 0 Z " fill="#F9EFE4" transform="translate(448,123)"/>
<path d="M0 0 C1.32 0 2.64 0 4 0 C4 2.64 4 5.28 4 8 C2.68 8 1.36 8 0 8 C0 5.36 0 2.72 0 0 Z " fill="#A3988B" transform="translate(352,87)"/>
<path d="M0 0 C0 2.64 0 5.28 0 8 C-0.66 7.34 -1.32 6.68 -2 6 C-3.98 6.99 -3.98 6.99 -6 8 C-6 6.02 -6 4.04 -6 2 C-6.99 1.67 -7.98 1.34 -9 1 C-7.68 1 -6.36 1 -5 1 C-4.67 1.66 -4.34 2.32 -4 3 C-3.525625 2.505 -3.05125 2.01 -2.5625 1.5 C-1 0 -1 0 0 0 Z " fill="#F9F0E6" transform="translate(263,232)"/>
<path d="M0 0 C1.93681161 -0.08107583 3.8745934 -0.13922475 5.8125 -0.1875 C6.89144531 -0.22230469 7.97039062 -0.25710937 9.08203125 -0.29296875 C12 0 12 0 13.88671875 1.51171875 C14.25410156 2.00285156 14.62148437 2.49398437 15 3 C12.36 3.33 9.72 3.66 7 4 C7.33 3.34 7.66 2.68 8 2 C5.36 2 2.72 2 0 2 C0 1.34 0 0.68 0 0 Z " fill="#F18731" transform="translate(158,235)"/>
<path d="M0 0 C0.33 0.66 0.66 1.32 1 2 C0.07161713 3.31896465 -0.86805732 4.62998689 -1.8125 5.9375 C-2.59560547 7.03384766 -2.59560547 7.03384766 -3.39453125 8.15234375 C-5 10 -5 10 -8 11 C-7.67 9.35 -7.34 7.7 -7 6 C-5.68 6 -4.36 6 -3 6 C-3.33 4.68 -3.66 3.36 -4 2 C-2.68 1.34 -1.36 0.68 0 0 Z " fill="#FDF0E2" transform="translate(172,222)"/>
<path d="M0 0 C0.33 0 0.66 0 1 0 C1 1.65 1 3.3 1 5 C1.99 5 2.98 5 4 5 C4 5.99 4 6.98 4 8 C0.52674819 9.1577506 -2.36067448 9.06866652 -6 9 C-6 8.67 -6 8.34 -6 8 C-4.35 8 -2.7 8 -1 8 C-1.020625 6.865625 -1.04125 5.73125 -1.0625 4.5625 C-1 1 -1 1 0 0 Z " fill="#FBEFE3" transform="translate(410,224)"/>
<path d="M0 0 C0 0.66 0 1.32 0 2 C-0.81404297 2.25523438 -0.81404297 2.25523438 -1.64453125 2.515625 C-7.30533471 4.42025405 -7.30533471 4.42025405 -11 9 C-11.3125 6.75 -11.3125 6.75 -11 4 C-7.52419392 0.21750515 -5.05426729 -0.4701644 0 0 Z " fill="#837462" transform="translate(348,99)"/>
<path d="M0 0 C-0.66 1.65 -1.32 3.3 -2 5 C-4.64 5 -7.28 5 -10 5 C-8.68 4.67 -7.36 4.34 -6 4 C-6 3.34 -6 2.68 -6 2 C-7.32 1.67 -8.64 1.34 -10 1 C-6.59437148 0.22157062 -3.49234244 -0.09978121 0 0 Z " fill="#E1DCD5" transform="translate(354,97)"/>
<path d="M0 0 C0.99 0 1.98 0 3 0 C3.33 0.99 3.66 1.98 4 3 C-1.75 6 -1.75 6 -4 6 C-4.33 4.35 -4.66 2.7 -5 1 C-2.525 1.495 -2.525 1.495 0 2 C0 1.34 0 0.68 0 0 Z " fill="#F9EFE2" transform="translate(394,152)"/>
<path d="M0 0 C0.33 0 0.66 0 1 0 C1.36601307 7.32026144 1.36601307 7.32026144 -0.3125 10.4375 C-2 12 -2 12 -5 13 C-5.99 12.67 -6.98 12.34 -8 12 C-7.01 11.67 -6.02 11.34 -5 11 C-5 10.34 -5 9.68 -5 9 C-4.0409375 8.38125 -4.0409375 8.38125 -3.0625 7.75 C-0.29641768 5.40302106 -0.31288108 3.51991219 0 0 Z " fill="#E7E0DA" transform="translate(269,122)"/>
<path d="M0 0 C3.96 0.33 7.92 0.66 12 1 C12 1.33 12 1.66 12 2 C9.03 2 6.06 2 3 2 C3.33 3.32 3.66 4.64 4 6 C2.68 6 1.36 6 0 6 C0 4.02 0 2.04 0 0 Z " fill="#F08C38" transform="translate(300,234)"/>
<path d="M0 0 C4.79451797 -0.19178072 8.59888976 -0.00050465 13 2 C14.875 4.125 14.875 4.125 16 6 C12.83175721 6 11.3943142 5.43346052 8.5625 4.125 C7.41974609 3.60292969 7.41974609 3.60292969 6.25390625 3.0703125 C4.15489841 2.07355661 2.07353635 1.04857647 0 0 Z " fill="#E9E1DA" transform="translate(254,113)"/>
<path d="M0 0 C0 2.64 0 5.28 0 8 C-1.32 7.67 -2.64 7.34 -4 7 C-4 5.02 -4 3.04 -4 1 C-2 0 -2 0 0 0 Z " fill="#FCF2E9" transform="translate(399,232)"/>
<path d="M0 0 C0.66 0 1.32 0 2 0 C2 0.99 2 1.98 2 3 C3.32 3 4.64 3 6 3 C6 2.34 6 1.68 6 1 C6.99 1.33 7.98 1.66 9 2 C7.87926138 2.83905565 6.75325453 3.67107831 5.625 4.5 C4.99851562 4.9640625 4.37203125 5.428125 3.7265625 5.90625 C2 7 2 7 0 7 C0 4.69 0 2.38 0 0 Z " fill="#FDEBD8" transform="translate(291,155)"/>
<path d="M0 0 C1.32 0.66 2.64 1.32 4 2 C3.01 2.66 2.02 3.32 1 4 C0.27034634 6.56282742 0.27034634 6.56282742 0 9 C-0.99 9 -1.98 9 -3 9 C-2.25 2.25 -2.25 2.25 0 0 Z " fill="#908271" transform="translate(364,102)"/>
<path d="M0 0 C0.33 0.66 0.66 1.32 1 2 C-0.375 4 -0.375 4 -2 6 C-2.66 6 -3.32 6 -4 6 C-4.33 6.99 -4.66 7.98 -5 9 C-6.65 9.33 -8.3 9.66 -10 10 C-10 9.34 -10 8.68 -10 8 C-4.58823529 4 -4.58823529 4 -2 4 C-1.34 2.68 -0.68 1.36 0 0 Z " fill="#FBE2CA" transform="translate(338,228)"/>
<path d="M0 0 C0.66 0.33 1.32 0.66 2 1 C1.2884375 1.61875 1.2884375 1.61875 0.5625 2.25 C-1.15290139 3.87962522 -1.15290139 3.87962522 -1.4375 6.0625 C-2 8 -2 8 -4.0625 9.25 C-4.701875 9.4975 -5.34125 9.745 -6 10 C-5.58578031 5.16743695 -3.53586014 3.17320782 0 0 Z " fill="#FBE9D8" transform="translate(302,162)"/>
<path d="M0 0 C1.22589844 0.29197266 1.22589844 0.29197266 2.4765625 0.58984375 C3.41628906 0.82380859 3.41628906 0.82380859 4.375 1.0625 C4.045 2.0525 3.715 3.0425 3.375 4.0625 C-3.14807692 3.44711538 -3.14807692 3.44711538 -5.5625 1.5 C-5.913125 1.025625 -6.26375 0.55125 -6.625 0.0625 C-3.99249612 -1.25375194 -2.82320944 -0.68563658 0 0 Z " fill="#90816E" transform="translate(253.625,112.9375)"/>
<path d="M0 0 C1.32 0.66 2.64 1.32 4 2 C2.68 5.63 1.36 9.26 0 13 C-0.89377528 9.42489889 -1.0258444 7.75082437 -0.5625 4.25 C-0.46066406 3.45078125 -0.35882813 2.6515625 -0.25390625 1.828125 C-0.17011719 1.22484375 -0.08632813 0.6215625 0 0 Z " fill="#F4F0E9" transform="translate(290,104)"/>
<path d="M0 0 C0.33 0.99 0.66 1.98 1 3 C1.99 3.33 2.98 3.66 4 4 C3.01 5.98 2.02 7.96 1 10 C0.01 9.01 -0.98 8.02 -2 7 C-1.34 4.69 -0.68 2.38 0 0 Z " fill="#F4872D" transform="translate(338,218)"/>
<path d="M0 0 C0.33 0 0.66 0 1 0 C1.2475 0.9075 1.495 1.815 1.75 2.75 C3.03981342 6.10351489 4.31971042 7.67708236 7 10 C4.125 9.6875 4.125 9.6875 1 9 C-1.14809171 5.77786243 -1.29386153 4.72224599 -1 1 C-0.67 0.67 -0.34 0.34 0 0 Z " fill="#806E5F" transform="translate(360,122)"/>
<path d="M0 0 C0.33 0 0.66 0 1 0 C1 1.65 1 3.3 1 5 C4.3 4.67 7.6 4.34 11 4 C10.67 5.65 10.34 7.3 10 9 C9.46375 8.690625 8.9275 8.38125 8.375 8.0625 C5.6015043 6.82172561 2.99957163 6.4090325 0 6 C0 4.02 0 2.04 0 0 Z " fill="#ED8F41" transform="translate(258,156)"/>
<path d="M0 0 C2.8125 0.125 2.8125 0.125 6 1 C8.51383097 4.68695208 9.39164373 7.56137104 9 12 C8.773125 11.443125 8.54625 10.88625 8.3125 10.3125 C6.6407496 7.36703501 4.41718785 5.35675815 2 3 C1.34 2.01 0.68 1.02 0 0 Z " fill="#FAE3CD" transform="translate(426,156)"/>
<path d="M0 0 C0.99 0.66 1.98 1.32 3 2 C3.1875 5.125 3.1875 5.125 3 8 C2.34 7.01 1.68 6.02 1 5 C0.13375 5.2784375 0.13375 5.2784375 -0.75 5.5625 C-3.20692525 6.04023546 -4.64397534 5.75729364 -7 5 C-6.030625 4.54625 -5.06125 4.0925 -4.0625 3.625 C-0.92920418 2.34213779 -0.92920418 2.34213779 0 0 Z " fill="#968779" transform="translate(380,125)"/>
<path d="M0 0 C2.00720923 0.28674418 4.0085944 0.61866701 6 1 C4.68 1.33 3.36 1.66 2 2 C2 3.98 2 5.96 2 8 C1.01 8 0.02 8 -1 8 C-1.04241723 5.66705225 -1.04092937 3.33297433 -1 1 C-0.67 0.67 -0.34 0.34 0 0 Z " fill="#FBF0E1" transform="translate(298,232)"/>
<path d="M0 0 C2.25245881 2.68841859 3.88213958 4.64641875 5 8 C3.0625 8.5625 3.0625 8.5625 1 9 C0 8 0 8 -0.09765625 6.15234375 C-0.06510417 4.1015625 -0.03255208 2.05078125 0 0 Z " fill="#F9E9D9" transform="translate(121,220)"/>
<path d="M0 0 C2.9375 0.75 2.9375 0.75 6 2 C7 4 7 4 7 6 C6.34 6.66 5.68 7.32 5 8 C4.16382818 6.8562364 3.33113541 5.70992861 2.5 4.5625 C2.0359375 3.92441406 1.571875 3.28632813 1.09375 2.62890625 C0 1 0 1 0 0 Z " fill="#F2872F" transform="translate(122,221)"/>
<path d="M0 0 C0.33 0 0.66 0 1 0 C1 2.64 1 5.28 1 8 C1.66 8 2.32 8 3 8 C2.67 9.32 2.34 10.64 2 12 C0.68 12.33 -0.64 12.66 -2 13 C-1.34 8.71 -0.68 4.42 0 0 Z " fill="#F08D3B" transform="translate(324,208)"/>
<path d="M0 0 C0.99 0.33 1.98 0.66 3 1 C2.01 1.495 2.01 1.495 1 2 C0.855625 2.804375 0.71125 3.60875 0.5625 4.4375 C0 7 0 7 -3 9 C-2.25 2.25 -2.25 2.25 0 0 Z " fill="#EBE7E0" transform="translate(340,103)"/>
<path d="M0 0 C1.32 0.66 2.64 1.32 4 2 C3.34 2 2.68 2 2 2 C1.896875 2.598125 1.79375 3.19625 1.6875 3.8125 C0.89496146 6.33421352 0.08408591 7.39685699 -2 9 C-2.99 9 -3.98 9 -5 9 C-5 8.34 -5 7.68 -5 7 C-4.0409375 6.6596875 -4.0409375 6.6596875 -3.0625 6.3125 C-0.72806339 5.14749104 -0.72806339 5.14749104 -0.25 2.375 C-0.1675 1.59125 -0.085 0.8075 0 0 Z " fill="#F17D16" transform="translate(437,126)"/>
<path d="M0 0 C0.33 0 0.66 0 1 0 C1.12375 1.093125 1.2475 2.18625 1.375 3.3125 C1.75464801 7.07381802 1.75464801 7.07381802 4 10 C3.67 10.66 3.34 11.32 3 12 C1.68 11.34 0.36 10.68 -1 10 C-0.67 6.7 -0.34 3.4 0 0 Z " fill="#E5DFD6" transform="translate(244,105)"/>
<path d="M0 0 C0.33 0.66 0.66 1.32 1 2 C0.67 2.99 0.34 3.98 0 5 C0.66 5 1.32 5 2 5 C1.67 6.32 1.34 7.64 1 9 C-0.32 9 -1.64 9 -3 9 C-3 5.30581799 -1.71820705 3.22163822 0 0 Z " fill="#F59B53" transform="translate(174,220)"/>
<path d="M0 0 C0.33 1.32 0.66 2.64 1 4 C-2.3 3.01 -5.6 2.02 -9 1 C-9 0.67 -9 0.34 -9 0 C-5.62182575 -0.84454356 -3.32534757 -1.10844919 0 0 Z " fill="#FAE5D2" transform="translate(329,154)"/>
<path d="M0 0 C2.35953094 2.35953094 2.49141413 3.77895617 3 7 C2.01 6.67 1.02 6.34 0 6 C0 5.34 0 4.68 0 4 C-0.66 3.67 -1.32 3.34 -2 3 C-2 4.65 -2 6.3 -2 8 C-2.33 8 -2.66 8 -3 8 C-3.33 5.69 -3.66 3.38 -4 1 C-2.68 1.33 -1.36 1.66 0 2 C0 1.34 0 0.68 0 0 Z " fill="#E5DFD9" transform="translate(271,102)"/>
<path d="M0 0 C1.32 0 2.64 0 4 0 C4.33 0.99 4.66 1.98 5 3 C5.66 3 6.32 3 7 3 C6.67 3.99 6.34 4.98 6 6 C4.35 6.33 2.7 6.66 1 7 C1.33 5.02 1.66 3.04 2 1 C1.34 0.67 0.68 0.34 0 0 Z " fill="#DCD8D0" transform="translate(296,99)"/>
<path d="M0 0 C2.97 0.495 2.97 0.495 6 1 C4.02 3.97 4.02 3.97 2 7 C0.4375 5.1875 0.4375 5.1875 -1 3 C-0.67 2.01 -0.34 1.02 0 0 Z " fill="#EFECE5" transform="translate(360,99)"/>
<path d="M0 0 C0.33 0.66 0.66 1.32 1 2 C1.66 2 2.32 2 3 2 C2.71872579 3.48117801 2.42466268 4.95993249 2.125 6.4375 C1.96257812 7.26121094 1.80015625 8.08492187 1.6328125 8.93359375 C1.42398438 9.61550781 1.21515625 10.29742187 1 11 C0.01 11.495 0.01 11.495 -1 12 C-1.125 7.25 -1.125 7.25 0 5 C0.0396713 3.33380554 0.04384447 1.66608987 0 0 Z " fill="#F39749" transform="translate(195,208)"/>
<path d="M0 0 C2 4 2 4 1.625 6.25 C1.41875 6.8275 1.2125 7.405 1 8 C0.34 8 -0.32 8 -1 8 C-1 8.66 -1 9.32 -1 10 C-1.66 10 -2.32 10 -3 10 C-2.01 6.7 -1.02 3.4 0 0 Z " fill="#EDE9E4" transform="translate(291,120)"/>
<path d="M0 0 C2.8203125 -0.29296875 2.8203125 -0.29296875 6.125 -0.1875 C7.76855469 -0.14689453 7.76855469 -0.14689453 9.4453125 -0.10546875 C10.28835938 -0.07066406 11.13140625 -0.03585938 12 0 C12 0.33 12 0.66 12 1 C7.38 1.66 2.76 2.32 -2 3 C-1.34 2.01 -0.68 1.02 0 0 Z " fill="#7B6A56" transform="translate(304,115)"/>
<path d="M0 0 C5 7.5 5 7.5 5 11 C4.34 11 3.68 11 3 11 C3 10.01 3 9.02 3 8 C1.68 7.67 0.36 7.34 -1 7 C-0.34 6.67 0.32 6.34 1 6 C0.67 4.02 0.34 2.04 0 0 Z " fill="#E6DED7" transform="translate(274,109)"/>
<path d="M0 0 C0.66 0.33 1.32 0.66 2 1 C1.2884375 2.175625 1.2884375 2.175625 0.5625 3.375 C-0.33898023 4.88948678 -1.21179485 6.4235897 -2 8 C-2.66 8 -3.32 8 -4 8 C-4.25 5.6875 -4.25 5.6875 -4 3 C-2 1.1875 -2 1.1875 0 0 Z " fill="#7D6D5A" transform="translate(305,102)"/>
<path d="M0 0 C0.93065133 2.60582371 1.14917407 3.64198224 0.0625 6.25 C-0.4634375 7.11625 -0.4634375 7.11625 -1 8 C-1.66 8 -2.32 8 -3 8 C-3 6.35 -3 4.7 -3 3 C-2.34 3 -1.68 3 -1 3 C-0.67 2.01 -0.34 1.02 0 0 Z " fill="#7E6D59" transform="translate(287,126)"/>
<path d="M0 0 C-0.33 0.66 -0.66 1.32 -1 2 C-5.29 1.34 -9.58 0.68 -14 0 C-14 -0.33 -14 -0.66 -14 -1 C-12.41870971 -1.22331199 -10.83478911 -1.42804644 -9.25 -1.625 C-8.36828125 -1.74101563 -7.4865625 -1.85703125 -6.578125 -1.9765625 C-3.77140122 -2.00207817 -2.36615134 -1.44843844 0 0 Z " fill="#938473" transform="translate(266,102)"/>
<path d="M0 0 C1.67542976 0.28604898 3.34385343 0.61781233 5 1 C5 1.66 5 2.32 5 3 C5.66 3.33 6.32 3.66 7 4 C5.02 4.33 3.04 4.66 1 5 C1 4.34 1 3.68 1 3 C0.34 2.34 -0.32 1.68 -1 1 C-0.67 0.67 -0.34 0.34 0 0 Z " fill="#F1ECE8" transform="translate(352,95)"/>
<path d="M0 0 C2.125 0.375 2.125 0.375 4 1 C2.35 2.65 0.7 4.3 -1 6 C-1.625 4.125 -1.625 4.125 -2 2 C-1.34 1.34 -0.68 0.68 0 0 Z " fill="#EE8835" transform="translate(334,228)"/>
<path d="M0 0 C0.495 0.309375 0.99 0.61875 1.5 0.9375 C4.97986781 2.41644382 8.24028509 2.62402851 12 3 C12 3.33 12 3.66 12 4 C8.04 4 4.08 4 0 4 C0 2.68 0 1.36 0 0 Z " fill="#FBE0C7" transform="translate(428,151)"/>
<path d="M0 0 C0 0.99 0 1.98 0 3 C-1 4 -1 4 -4.5625 4.0625 C-5.696875 4.041875 -6.83125 4.02125 -8 4 C-8 3.34 -8 2.68 -8 2 C-5.36 1.34 -2.72 0.68 0 0 Z " fill="#796C5A" transform="translate(282,139)"/>
<path d="M0 0 C0 2.31 0 4.62 0 7 C-0.99 6.34 -1.98 5.68 -3 5 C-2.67 4.34 -2.34 3.68 -2 3 C-2.99 2.67 -3.98 2.34 -5 2 C-2 0 -2 0 0 0 Z " fill="#ECE5E0" transform="translate(322,115)"/>
<path d="M0 0 C0.33 0 0.66 0 1 0 C1.66 2.64 2.32 5.28 3 8 C1.68 7.67 0.36 7.34 -1 7 C-1.04254356 5.00045254 -1.04080783 2.99958364 -1 1 C-0.67 0.67 -0.34 0.34 0 0 Z " fill="#7D705F" transform="translate(246,105)"/>
<path d="M0 0 C0.66 0.66 1.32 1.32 2 2 C-0.97 4.475 -0.97 4.475 -4 7 C-4.66 6.67 -5.32 6.34 -6 6 C-4.95125002 3.37812506 -4.35068687 2.20628639 -1.875 0.75 C-1.25625 0.5025 -0.6375 0.255 0 0 Z " fill="#F4EFEA" transform="translate(248,98)"/>
<path d="M0 0 C0.66 0 1.32 0 2 0 C1.60196439 2.88575819 1.20990931 3.82189513 -1.0625 5.75 C-1.701875 6.1625 -2.34125 6.575 -3 7 C-3.66 6.67 -4.32 6.34 -5 6 C-3.38405168 3.95880212 -1.7143618 1.95927063 0 0 Z " fill="#FBDBBD" transform="translate(449,144)"/>
<path d="M0 0 C2.56687367 3.8503105 1.83288724 5.58569763 1 10 C-0.5625 8.3125 -0.5625 8.3125 -2 6 C-1.58974359 1.58974359 -1.58974359 1.58974359 0 0 Z " fill="#918071" transform="translate(361,117)"/>
<path d="M0 0 C0.66 0.33 1.32 0.66 2 1 C2 1.99 2 2.98 2 4 C2.66 4.33 3.32 4.66 4 5 C2.02 5.99 2.02 5.99 0 7 C-0.93423645 3.98968256 -1.04449911 3.13349732 0 0 Z " fill="#FBFBF9" transform="translate(297,108)"/>
<path d="M0 0 C1.65 1.65 3.3 3.3 5 5 C4.01 5.33 3.02 5.66 2 6 C1.01 5.34 0.02 4.68 -1 4 C-0.67 2.68 -0.34 1.36 0 0 Z " fill="#FDE8D1" transform="translate(217,228)"/>
<path d="M0 0 C2 3 2 3 2 5 C1.34 5 0.68 5 0 5 C0 6.98 0 8.96 0 11 C-0.66 11 -1.32 11 -2 11 C-1.34 7.37 -0.68 3.74 0 0 Z " fill="#F8D4B1" transform="translate(346,205)"/>
<path d="M0 0 C0.66 0 1.32 0 2 0 C2 2.31 2 4.62 2 7 C1.01 6.34 0.02 5.68 -1 5 C-0.67 3.35 -0.34 1.7 0 0 Z " fill="#8A7A65" transform="translate(244,120)"/>
<path d="M0 0 C0.86625 0.3403125 0.86625 0.3403125 1.75 0.6875 C0.76 1.3475 -0.23 2.0075 -1.25 2.6875 C-2.24 4.1725 -2.24 4.1725 -3.25 5.6875 C-3.58 5.0275 -3.91 4.3675 -4.25 3.6875 C-4.91 3.3575 -5.57 3.0275 -6.25 2.6875 C-2.80384615 -0.38942308 -2.80384615 -0.38942308 0 0 Z " fill="#E7E1D9" transform="translate(310.25,102.3125)"/>
<path d="M0 0 C0.66 0 1.32 0 2 0 C1.75 1.875 1.75 1.875 1 4 C-1.0625 5.25 -1.0625 5.25 -3 6 C-2.42655063 3.13275314 -2.1385485 2.1385485 0 0 Z " fill="#877B6D" transform="translate(248,100)"/>
<path d="M0 0 C2.31 0.33 4.62 0.66 7 1 C7 1.33 7 1.66 7 2 C2.545 2.495 2.545 2.495 -2 3 C-1.34 2.01 -0.68 1.02 0 0 Z " fill="#7F6D5C" transform="translate(403,99)"/>
</svg>
