<?xml version="1.0" encoding="UTF-8"?>
<svg version="1.1" xmlns="http://www.w3.org/2000/svg" width="1900" height="422">
<path d="M0 0 C-0.02727676 0.61006393 -0.05455353 1.22012787 -0.08265686 1.84867859 C-0.36764045 8.25721676 -0.64158778 14.66616223 -0.90942383 21.07543945 C-1.01049329 23.46032415 -1.11428024 25.84509543 -1.22094727 28.22973633 C-1.37468406 31.67762686 -1.51830969 35.12582093 -1.66015625 38.57421875 C-1.70906509 39.62268478 -1.75797394 40.67115082 -1.80836487 41.75138855 C-2.10274205 49.23666821 -1.714518 56.54531679 -1 64 C-0.18336884 63.61129227 0.63326233 63.22258453 1.47463989 62.82209778 C33.77419685 47.46472011 71.42841356 29.99112865 108 31 C104.39343925 35.28888306 100.68045145 39.44864727 96.875 43.5625 C91.78551997 49.07741104 86.8795787 54.73245826 82.0234375 60.453125 C80.07041144 62.75360657 78.09808523 65.03405912 76.1015625 67.296875 C67.48778989 77.101652 59.7025588 87.47066067 52 98 C51.45279297 98.74185547 50.90558594 99.48371094 50.34179688 100.24804688 C42.40190554 111.04118293 35.42994405 122.24437546 29 134 C28.41476562 135.05574219 27.82953125 136.11148438 27.2265625 137.19921875 C24.67360015 143.02875379 25.04604417 149.07079445 26.99609375 155.05859375 C35.2552228 173.05086072 51.7992963 183.00949796 68.50390625 192.08984375 C71.38257435 193.66265794 74.20312192 195.28751611 77 197 C74 198 74 198 70 198 C70.66 198.99 71.32 199.98 72 201 C68.6215274 199.68217743 65.33969491 198.24765016 62.0703125 196.6796875 C51.90889795 191.86911125 41.75387161 187.31115602 31.125 183.625 C30.27309082 183.32835449 29.42118164 183.03170898 28.54345703 182.72607422 C11.49121218 176.98644435 -5.82694792 173.28904015 -23.48022461 169.94775391 C-66.15556592 161.83037596 -66.15556592 161.83037596 -77 147 C-78.21711046 144.95483384 -79.40429586 142.89159251 -80.5625 140.8125 C-87.19225584 129.09894035 -97.17220719 125.58637899 -109.77734375 121.9375 C-112.16157892 121.28255745 -114.54839922 120.63696512 -116.9375 120 C-118.19135498 119.6596875 -119.44520996 119.319375 -120.73706055 118.96875 C-131.4396764 116.08945254 -142.1931688 113.45663485 -153 111 C-153 110.67 -153 110.34 -153 110 C-142.78014678 110.63957519 -132.77513625 112.22515842 -122.69165039 113.91870117 C-108.69966025 116.89672789 -108.69966025 116.89672789 -95.1875 114 C-86.73298992 110.35986372 -79.35351936 111.22183224 -70.875 114.4375 C-68.20802744 115.5599309 -65.58739349 116.70630325 -63 118 C-58.44056509 118.52358211 -58.44056509 118.52358211 -54.4140625 116.8125 C-52.66297558 114.5680129 -51.78725074 112.42402886 -50.8125 109.75 C-50.29623047 108.38101563 -50.29623047 108.38101563 -49.76953125 106.984375 C-48.17992543 100.81960927 -49.16224964 95.58068107 -50.93359375 89.5625 C-51.13098648 88.87873291 -51.32837921 88.19496582 -51.53175354 87.49047852 C-52.158268 85.32432677 -52.79695786 83.16204114 -53.4375 81 C-54.07284766 78.83754627 -54.7053792 76.67436579 -55.33253479 74.50952148 C-55.90242374 72.54495191 -56.48111105 70.58294085 -57.06030273 68.62109375 C-59.98081966 57.36697397 -60.43322559 46.07384418 -54.7109375 35.65234375 C-53.23297042 33.34845389 -51.66602914 31.17136499 -50 29 C-49.49726562 28.33226563 -48.99453125 27.66453125 -48.4765625 26.9765625 C-38.40700588 14.54925604 -16.60898301 0 0 0 Z " fill="#249FD3" transform="translate(1098,27)"/>
<path d="M0 0 C1.32020557 1.11594735 2.63351011 2.24014687 3.9375 3.375 C4.51242187 3.808125 5.08734375 4.24125 5.6796875 4.6875 C22.99812683 18.095324 31.97566099 41.41429316 34.9375 62.375 C35.2675 67.985 35.5975 73.595 35.9375 79.375 C-9.9325 79.375 -55.8025 79.375 -103.0625 79.375 C-98.16063208 98.98247169 -92.30802496 113.31076795 -75.0625 124.375 C-60.94364809 131.96969001 -44.5878482 134.16737845 -29 129.8125 C-18.17923259 125.83611044 -10.02468599 119.53093138 -3.0625 110.375 C-2.78865479 109.68841309 -2.51480957 109.00182617 -2.23266602 108.29443359 C-1.09688496 105.71557944 -0.22218683 104.2105697 1.9375 102.375 C7.05820913 101.35311777 12.0711311 101.62187719 17.25 101.875 C18.67242649 101.91515501 20.09496125 101.95165236 21.51757812 101.984375 C24.99314395 102.07227565 28.46463582 102.21015387 31.9375 102.375 C31.17863604 104.59106434 30.41192786 106.80389045 29.640625 109.015625 C29.21426758 110.24829102 28.78791016 111.48095703 28.34863281 112.75097656 C24.5875441 122.41007705 18.1217437 130.04388931 10.9375 137.375 C10.27363281 138.07496094 9.60976563 138.77492188 8.92578125 139.49609375 C-6.38901721 154.46083967 -28.40264794 158.66244822 -49.01342773 158.69189453 C-73.85318833 158.37496603 -93.42596292 147.65835041 -110.96484375 130.515625 C-127.12104294 113.37027076 -132.94133487 89.38804933 -132.34375 66.45703125 C-131.26038579 42.21224306 -120.4069887 20.96958752 -103.0625 4.375 C-74.21690924 -20.67396989 -30.67416941 -23.4078687 0 0 Z M-69.0625 14.375 C-70.24199219 14.9009375 -70.24199219 14.9009375 -71.4453125 15.4375 C-84.28169525 21.87805441 -94.91908554 34.00637316 -100.0625 47.375 C-100.3925 49.355 -100.7225 51.335 -101.0625 53.375 C-66.4125 53.375 -31.7625 53.375 3.9375 53.375 C-0.90903834 37.21987221 -9.65133837 24.50397124 -24.50390625 15.97265625 C-38.54484781 8.57704581 -54.52514436 7.81809182 -69.0625 14.375 Z " fill="#323232" transform="translate(853.0625,227.625)"/>
<path d="M0 0 C5.02327255 4.09285834 9.2929092 8.17473024 13.375 13.27734375 C13.705 5.68734375 14.035 -1.90265625 14.375 -9.72265625 C23.285 -9.72265625 32.195 -9.72265625 41.375 -9.72265625 C41.375 45.05734375 41.375 99.83734375 41.375 156.27734375 C32.465 156.27734375 23.555 156.27734375 14.375 156.27734375 C14.045 148.68734375 13.715 141.09734375 13.375 133.27734375 C12.158125 134.74171875 10.94125 136.20609375 9.6875 137.71484375 C-1.29864429 149.89100995 -17.13523564 158.9065492 -33.61376953 160.58105469 C-36.70739367 160.71380255 -39.77872511 160.74455802 -42.875 160.71484375 C-43.96820557 160.7087207 -45.06141113 160.70259766 -46.18774414 160.69628906 C-54.90218838 160.5286912 -62.40098769 159.28307414 -70.625 156.27734375 C-71.51703125 155.98859375 -72.4090625 155.69984375 -73.328125 155.40234375 C-92.76058783 148.5582059 -108.84085034 131.54508356 -117.625 113.27734375 C-127.75460559 88.36790723 -128.6166495 62.77872901 -119.00390625 37.52734375 C-115.32393736 28.853876 -110.61123321 21.52095928 -104.625 14.27734375 C-103.9959375 13.45621094 -103.366875 12.63507813 -102.71875 11.7890625 C-78.49886083 -17.26576723 -29.84175966 -23.15945165 0 0 Z M-82.26953125 31.41796875 C-93.16133872 44.63986439 -98.65349953 61.17177259 -97.625 78.27734375 C-96.39581035 90.77995848 -92.37301004 102.32610811 -84.625 112.27734375 C-83.74714844 113.41816406 -83.74714844 113.41816406 -82.8515625 114.58203125 C-74.89594503 124.22618794 -63.82639539 130.57637871 -51.625 133.27734375 C-35.37691579 134.70971985 -22.98558826 131.87827522 -9.625 122.27734375 C-8.98949219 121.8390625 -8.35398437 121.40078125 -7.69921875 120.94921875 C3.28292591 112.56744398 10.89141406 97.39829894 13.08984375 84.015625 C14.98338339 65.83245666 11.50361598 48.57377709 -0.13671875 34.05078125 C-9.03944486 23.54169369 -20.80352954 15.46183022 -34.625 13.27734375 C-53.60975346 11.89704582 -69.00864897 17.50352947 -82.26953125 31.41796875 Z " fill="#323232" transform="translate(1468.625,225.72265625)"/>
<path d="M0 0 C5.02327255 4.09285834 9.2929092 8.17473024 13.375 13.27734375 C13.705 5.68734375 14.035 -1.90265625 14.375 -9.72265625 C23.285 -9.72265625 32.195 -9.72265625 41.375 -9.72265625 C41.375 45.05734375 41.375 99.83734375 41.375 156.27734375 C32.465 156.27734375 23.555 156.27734375 14.375 156.27734375 C14.045 148.68734375 13.715 141.09734375 13.375 133.27734375 C12.158125 134.74171875 10.94125 136.20609375 9.6875 137.71484375 C-1.29864429 149.89100995 -17.13523564 158.9065492 -33.61376953 160.58105469 C-36.70739367 160.71380255 -39.77872511 160.74455802 -42.875 160.71484375 C-43.96820557 160.7087207 -45.06141113 160.70259766 -46.18774414 160.69628906 C-54.90218838 160.5286912 -62.40098769 159.28307414 -70.625 156.27734375 C-71.51703125 155.98859375 -72.4090625 155.69984375 -73.328125 155.40234375 C-92.7669079 148.55597996 -108.83118713 131.54458499 -117.625 113.27734375 C-127.55295225 89.05132175 -129.09073444 62.36901772 -119.24804688 37.796875 C-110.07440404 16.57641261 -94.7207839 0.93678617 -73.6875 -8.53515625 C-49.47039777 -17.86883107 -20.98590254 -16.28663995 0 0 Z M-82.26953125 31.421875 C-93.27973836 44.76924051 -99.0184324 61.94219516 -97.44091797 79.30322266 C-95.32720184 96.19289742 -88.40521525 111.69460716 -74.9921875 122.68359375 C-60.88375015 132.18234365 -45.85368901 135.72927612 -29.10546875 132.625 C-21.87987728 130.41849566 -15.73061586 126.66484513 -9.625 122.27734375 C-8.98949219 121.8390625 -8.35398437 121.40078125 -7.69921875 120.94921875 C3.28292591 112.56744398 10.89141406 97.39829894 13.08984375 84.015625 C14.9764006 65.89951057 11.49886182 49.15337596 0.23828125 34.49609375 C-9.76712772 22.90169313 -22.34436366 14.21205261 -37.9609375 13.0234375 C-55.88201298 12.4507021 -69.95506731 18.48092005 -82.26953125 31.421875 Z " fill="#323232" transform="translate(491.625,225.72265625)"/>
<path d="M0 0 C9.57 0 19.14 0 29 0 C29.33 47.52 29.66 95.04 30 144 C35.94 138.06 41.88 132.12 48 126 C50.64 123.69 53.28 121.38 56 119 C57.5309016 117.36662678 59.02527269 115.69748628 60.46435547 113.98266602 C96.46469332 71.84923956 96.46469332 71.84923956 114.375 69.97265625 C124.35501563 69.39205446 134.29399392 70.73309185 144 73 C140.11250046 77.64812791 136.08118128 82.06788527 131.7890625 86.34375 C131.21723236 86.91653687 130.64540222 87.48932373 130.0562439 88.07946777 C128.85578062 89.28060622 127.65407505 90.48050426 126.45117188 91.67919922 C124.63296563 93.49205779 122.82015053 95.31018328 121.0078125 97.12890625 C115.80364203 102.33580165 110.60130684 107.45365434 104.99365234 112.22900391 C100.46360392 116.2531248 96.26364028 120.63512593 92 124.9375 C91.02497614 125.9175531 90.0497172 126.8973724 89.07421875 127.87695312 C86.71383382 130.24902313 84.35583095 132.6234086 82 135 C83.54687242 139.48577038 85.9783056 143.18899432 88.64453125 147.0703125 C89.11789917 147.76778091 89.59126709 148.46524933 90.07897949 149.18385315 C91.65255826 151.50049844 93.23261588 153.81265126 94.8125 156.125 C95.92331247 157.75850181 97.03357169 159.39237996 98.14331055 161.02661133 C100.51316629 164.51609586 102.88498208 168.00423691 105.2578125 171.49169922 C111.00891082 179.95047414 116.72533762 188.43266166 122.44271851 196.91424561 C124.26084607 199.61088704 126.08011519 202.30675489 127.8996582 205.00244141 C131.27105037 209.99853103 134.63684789 214.99836072 138 220 C138.58038025 220.86224182 139.1607605 221.72448364 139.75872803 222.612854 C141.46020885 225.14253459 143.15835395 227.67442012 144.85546875 230.20703125 C145.6349865 231.36497444 145.6349865 231.36497444 146.43025208 232.54631042 C150 237.88521337 150 237.88521337 150 239 C138.91385387 241.74818434 125.71571687 244.18932406 115 239 C103.43284355 229.99430471 96.44868955 214.43408717 89.40576172 201.91210938 C84.69348241 193.60432684 79.34120893 185.73952175 73.96786499 177.85021973 C72.40170374 175.53940048 70.85693851 173.21580253 69.31958008 170.88574219 C68.84552231 170.16888245 68.37146454 169.45202271 67.88304138 168.71343994 C67.00641344 167.38703141 66.13157119 166.05944014 65.25892639 164.73040771 C63.37516025 161.89775242 61.55002551 159.27078084 59 157 C58.0821875 157.92941406 57.164375 158.85882813 56.21875 159.81640625 C45.06132464 171.07118338 45.06132464 171.07118338 40.5625 174.9375 C40.00961807 175.41775131 39.45673615 175.89800262 38.88710022 176.39280701 C37.67175876 177.42788095 36.42787413 178.43077785 35.15257263 179.39100647 C32.15208455 181.89751744 30.27775491 183.84308091 29.34939575 187.70993042 C29.09505907 190.98985016 29.05670367 194.20656477 29.09765625 197.49609375 C29.08536484 198.68477554 29.07307343 199.87345734 29.06040955 201.09815979 C29.02872678 204.87857123 29.04494549 208.65702831 29.0625 212.4375 C29.04938856 215.00717955 29.03314752 217.57684517 29.01367188 220.14648438 C28.96699095 226.43217296 28.98513701 232.71295385 29 239 C19.43 239 9.86 239 0 239 C0 160.13 0 81.26 0 0 Z " fill="#323232" transform="translate(1185,143)"/>
<path d="M0 0 C1.32020557 1.11594735 2.63351011 2.24014687 3.9375 3.375 C4.51242187 3.808125 5.08734375 4.24125 5.6796875 4.6875 C22.12164689 17.41675888 31.22440447 39.33770983 33.9375 59.375 C34.22042603 63.48394107 34.27190287 67.56976001 34.25 71.6875 C34.24262817 73.33443848 34.24262817 73.33443848 34.23510742 75.01464844 C33.89545335 98.57096483 24.58906883 118.96501068 8.4765625 135.97265625 C-9.04061935 152.99009868 -30.8257206 158.87816013 -54.75390625 158.58984375 C-75.73680402 157.99097005 -93.15924578 148.61247311 -108.0625 134.375 C-108.68898438 133.82328125 -109.31546875 133.2715625 -109.9609375 132.703125 C-123.98164126 119.88782111 -132.06804601 97.99491015 -133.18652344 79.30224609 C-134.11176573 53.51540071 -127.69900302 30.59773966 -110.5 10.9375 C-109.03926264 9.39895704 -107.56129136 7.87649676 -106.0625 6.375 C-105.45148437 5.75238281 -104.84046875 5.12976563 -104.2109375 4.48828125 C-76.4210274 -21.82344214 -29.98421679 -22.88135663 0 0 Z M-88.0546875 27.4609375 C-101.55488591 43.87404179 -105.81054579 61.48915095 -104.0625 82.375 C-101.87312726 98.11659003 -92.82108224 112.79126822 -80.36328125 122.47265625 C-74.31256808 126.53811403 -68.02928683 129.2748017 -61.0625 131.375 C-60.43988281 131.56707031 -59.81726562 131.75914062 -59.17578125 131.95703125 C-46.59456347 134.44536822 -33.32169454 131.77182614 -22.375 125.3125 C-6.99266712 114.66493527 1.92052413 100.68260909 5.51953125 82.421875 C7.87983175 65.21594614 4.20610866 46.80080778 -6.31103516 32.70117188 C-15.36908663 21.46401392 -27.44452185 12.54554827 -42.0625 10.375 C-59.86259877 9.09456837 -75.5233716 14.33991261 -88.0546875 27.4609375 Z " fill="#323232" transform="translate(1117.0625,227.625)"/>
<path d="M0 0 C9.24 0 18.48 0 28 0 C28 11.55 28 23.1 28 35 C64.96 35 101.92 35 140 35 C140 43.91 140 52.82 140 62 C103.04 62 66.08 62 28 62 C28.103125 75.15875 28.20625 88.3175 28.3125 101.875 C28.33739502 106.01272949 28.36229004 110.15045898 28.38793945 114.41357422 C28.42455185 118.15897113 28.42455185 118.15897113 28.4650116 121.90432739 C28.4810428 123.55801153 28.49141064 125.21175704 28.49711609 126.86550903 C28.55426668 141.50695368 29.84986252 153.7664117 39.96875 165.23046875 C48.8681863 173.82358388 60.00512859 177.36590207 72.21875 177.21875 C83.22503649 176.35308702 94.54979857 172.44020568 102 164 C109.47937822 153.06977044 111.28331237 144.56363321 111.625 131.5625 C111.74875 127.416875 111.8725 123.27125 112 119 C121.24 119 130.48 119 140 119 C140.50312729 146.29465554 139.21734677 166.29899409 120.05078125 187.1171875 C107.02658934 199.86849158 88.39003392 205.29191532 70.5625 205.5 C51.11459413 205.29059891 33.61036476 199.69804291 19.62109375 185.75390625 C7.29095403 172.79899044 -0.13592783 156.86071251 -0.12025452 138.77371216 C-0.12162918 137.54541183 -0.12300385 136.31711151 -0.12442017 135.05158997 C-0.12088177 133.70382666 -0.11724697 132.3560636 -0.11352539 131.00830078 C-0.1132431 129.57886253 -0.11340207 128.14942413 -0.1139679 126.71998596 C-0.11425423 122.85061718 -0.10838392 118.98127953 -0.10139394 115.11191797 C-0.09513319 111.064024 -0.09455445 107.01612927 -0.09336853 102.9682312 C-0.09026324 95.30795042 -0.08206066 87.64768396 -0.07201904 79.98740947 C-0.060833 71.26434275 -0.05534118 62.54127533 -0.05032361 53.81820321 C-0.03987738 35.87879239 -0.02154186 17.93940117 0 0 Z " fill="#323232" transform="translate(28,181)"/>
<path d="M0 0 C9.9 0 19.8 0 30 0 C35.85544562 16.0758598 41.52629945 32.20826303 47.125 48.375 C47.66824921 49.94364304 47.66824921 49.94364304 48.22247314 51.54397583 C49.70439122 55.82348426 51.18617443 60.10303936 52.66772461 64.38267517 C56.2132365 74.62173693 59.77283158 84.85586327 63.34051514 95.08721924 C63.98035232 96.92235667 64.61988673 98.75759969 65.25909424 100.59295654 C68.44838583 109.74996569 71.64267841 118.90282415 75 128 C80.64379427 113.02956647 85.85014246 97.91529785 91.01947021 82.77612305 C93.43422463 75.70507159 95.8578856 68.63707636 98.28515625 61.5703125 C98.52709717 60.86590782 98.76903809 60.16150314 99.01831055 59.43575287 C105.84714707 39.56526792 112.8997526 19.77490106 120 0 C129.9 0 139.8 0 150 0 C149.07201031 4.63994847 147.72699117 8.89346414 146.140625 13.328125 C145.84454849 14.16343246 145.54847198 14.99873993 145.24342346 15.85935974 C144.24967154 18.65770152 143.25014734 21.45393807 142.25 24.25 C141.72579971 25.72057358 141.72579971 25.72057358 141.19100952 27.22085571 C134.32789261 46.46922844 127.26839362 65.64408579 120.17773438 84.80957031 C115.41620614 97.68662839 110.69050479 110.57533397 106.02734375 123.48828125 C105.78302423 124.16461798 105.53870472 124.8409547 105.28698158 125.53778648 C102.90709842 132.12671033 100.53067533 138.7168623 98.16208744 145.30985546 C97.09431753 148.28016565 96.02332931 151.24931621 94.953125 154.21875 C94.37189125 155.84246269 94.37189125 155.84246269 93.77891541 157.49897766 C93.4255159 158.478358 93.07211639 159.45773834 92.70800781 160.46679688 C92.40050598 161.32301636 92.09300415 162.17923584 91.77618408 163.06140137 C91 165 91 165 90 166 C87.78144736 166.08783542 85.56011504 166.10694609 83.33984375 166.09765625 C82.34314415 166.09553383 82.34314415 166.09553383 81.3263092 166.09336853 C79.19666101 166.08775518 77.06711661 166.07520054 74.9375 166.0625 C73.49674631 166.05748671 72.05599097 166.05292351 70.61523438 166.04882812 C67.07678898 166.03778145 63.53840461 166.02050792 60 166 C56.54672456 157.91527744 53.38700129 149.76902083 50.4375 141.48828125 C50.01322723 140.30588364 49.58895447 139.12348602 49.15182495 137.90525818 C48.24013885 135.36438143 47.32943369 132.82317826 46.42034912 130.28137207 C43.97893799 123.45662794 41.52506553 116.6363607 39.0703125 109.81640625 C38.81919834 109.11854382 38.56808418 108.42068138 38.3093605 107.7016716 C32.90586167 92.69009742 27.40308823 77.71611492 21.875 62.75 C20.99709478 60.3713589 20.11924571 57.99269706 19.24145508 55.61401367 C17.58631092 51.12958209 15.93077551 46.64529525 14.27490234 42.16113281 C13.51659034 40.10742602 12.75828912 38.05371524 12 36 C11.47481781 34.57778137 11.47481781 34.57778137 10.93902588 33.12683105 C9.10966202 28.17098809 7.28455479 23.2136339 5.46807861 18.25305176 C4.95533332 16.85518037 4.44085996 15.45794139 3.92449951 14.06140137 C3.24079248 12.2118428 2.5635321 10.3599048 1.88671875 8.5078125 C1.51764404 7.50379395 1.14856934 6.49977539 0.76831055 5.46533203 C0 3 0 3 0 0 Z " fill="#323232" transform="translate(559,216)"/>
<path d="M0 0 C5.13983303 4.37864478 8.88358453 9.01664287 12.3125 14.8125 C12.77269531 15.58078125 13.23289062 16.3490625 13.70703125 17.140625 C20.64443012 29.79980601 22.49431421 44.03260307 22.375 58.25 C22.354375 61.735625 22.33375 65.22125 22.3125 68.8125 C13.0725 68.8125 3.8325 68.8125 -5.6875 68.8125 C-5.790625 65.76 -5.89375 62.7075 -6 59.5625 C-6.65404122 45.14211529 -9.26654459 32.47580321 -19.6875 21.8125 C-29.49032879 14.0977177 -40.49782092 12.72480556 -52.6875 13.8125 C-63.72347824 15.79076442 -73.54750038 20.89678179 -80.125 30.1875 C-86.36570921 40.64880445 -87.82088229 50.28814218 -87.89282227 62.24584961 C-87.90767166 63.78357025 -87.90767166 63.78357025 -87.92282104 65.35235596 C-87.95427646 68.72316215 -87.97913012 72.09398241 -88.00390625 75.46484375 C-88.02448957 77.80896866 -88.0454864 80.15308998 -88.06687927 82.49720764 C-88.12195763 88.65382974 -88.1714295 94.81048455 -88.21972656 100.96716309 C-88.27004576 107.25483089 -88.32567735 113.54245145 -88.38085938 119.83007812 C-88.48826676 132.15751315 -88.58925897 144.48498851 -88.6875 156.8125 C-97.9275 156.8125 -107.1675 156.8125 -116.6875 156.8125 C-116.6875 102.0325 -116.6875 47.2525 -116.6875 -9.1875 C-107.7775 -9.1875 -98.8675 -9.1875 -89.6875 -9.1875 C-89.3575 -4.2375 -89.0275 0.7125 -88.6875 5.8125 C-87.5325 4.6575 -86.3775 3.5025 -85.1875 2.3125 C-61.66108752 -18.54635075 -24.63925826 -18.98927909 0 0 Z " fill="#323232" transform="translate(322.6875,225.1875)"/>
<path d="M0 0 C9.24 0 18.48 0 28 0 C28 78.87 28 157.74 28 239 C18.76 239 9.52 239 0 239 C0 160.13 0 81.26 0 0 Z " fill="#333333" transform="translate(922,143)"/>
<path d="M0 0 C-3.60656075 4.28888306 -7.31954855 8.44864727 -11.125 12.5625 C-16.21448003 18.07741104 -21.1204213 23.73245826 -25.9765625 29.453125 C-27.92958856 31.75360657 -29.90191477 34.03405912 -31.8984375 36.296875 C-40.51221011 46.101652 -48.2974412 56.47066067 -56 67 C-56.54720703 67.74185547 -57.09441406 68.48371094 -57.65820312 69.24804688 C-65.59809446 80.04118293 -72.57005595 91.24437546 -79 103 C-79.58523438 104.05574219 -80.17046875 105.11148438 -80.7734375 106.19921875 C-82.92560969 111.11357372 -82.81490839 115.75047386 -82 121 C-80.65299373 124.33823293 -79.10284392 127.38323733 -77.3125 130.50390625 C-76 133 -76 133 -76 136 C-91.64755399 119.24554508 -97.47263495 93.53955547 -103.75 72.125 C-103.94086182 71.47704468 -104.13172363 70.82908936 -104.32836914 70.16149902 C-112.47535645 42.37678225 -112.47535645 42.37678225 -111 35 C-105.31664271 29.9227864 -97.12711562 27.15042688 -90.25 24.125 C-89.05060791 23.59688721 -87.85121582 23.06877441 -86.61547852 22.5246582 C-64.53213296 12.92057659 -41.56894915 5.94929546 -17.875 1.5625 C-16.99344238 1.39854736 -16.11188477 1.23459473 -15.20361328 1.06567383 C-10.06049162 0.1756521 -5.21853586 -0.15065057 0 0 Z " fill="#189DC1" transform="translate(1206,58)"/>
<path d="M0 0 C3.6309933 2.71852531 6.79919591 5.79919591 10 9 C10.9590625 7.6696875 10.9590625 7.6696875 11.9375 6.3125 C15.9166439 1.51478935 21.8437269 -1.91294637 28 -3 C38.54406045 -3.7566914 47.71280938 -3.26672928 56.375 3.375 C63.57531902 10.57531902 66.10795399 18.5975386 66.34057617 28.64306641 C66.3401069 31.12928237 66.32349927 33.61553395 66.29296875 36.1015625 C66.28872391 37.41917572 66.28447906 38.73678894 66.28010559 40.09432983 C66.26876133 43.56318881 66.23938711 47.0316588 66.20599365 50.50036621 C66.17506511 54.05357606 66.16155206 57.60685001 66.14648438 61.16015625 C66.11450474 68.10694477 66.06182494 75.05341355 66 82 C61.38 82 56.76 82 52 82 C51.98541748 80.38101807 51.97083496 78.76203613 51.95581055 77.09399414 C51.89763782 71.06105979 51.82040543 65.02849127 51.73754883 58.99584961 C51.70438874 56.38979042 51.67632935 53.78366096 51.65356445 51.17749023 C51.61985511 47.4214089 51.56752888 43.66596645 51.51171875 39.91015625 C51.50532883 38.75354996 51.4989389 37.59694366 51.49235535 36.4052887 C51.34955729 28.46639248 50.68565155 21.5062673 45.75 15.0625 C41.20499028 11.65374271 37.02888141 10.74910881 31.4375 11.125 C25.63191094 11.98399022 22.22398847 14.37904229 18.6875 19.0625 C16.36324845 23.10841937 15.86562071 25.98197393 15.79467773 30.57299805 C15.77473251 31.71395432 15.75478729 32.85491058 15.73423767 34.03044128 C15.71752518 35.26176285 15.70081268 36.49308441 15.68359375 37.76171875 C15.6524221 39.65311333 15.6524221 39.65311333 15.62062073 41.5827179 C15.56627878 44.93145458 15.51603834 48.28020205 15.46777344 51.62902832 C15.41749643 55.04766229 15.36184276 58.46620826 15.30664062 61.88476562 C15.19946496 68.5897758 15.09819188 75.29485248 15 82 C10.05 82 5.1 82 0 82 C-0.0093457 80.28490234 -0.01869141 78.56980469 -0.02832031 76.80273438 C-0.06396402 71.11084904 -0.11783522 65.41932753 -0.18390274 59.72771454 C-0.22326903 56.27972114 -0.2555099 52.83197896 -0.27099609 49.38378906 C-0.28915662 45.41178185 -0.33915575 41.44047054 -0.390625 37.46875 C-0.39185364 36.24136108 -0.39308228 35.01397217 -0.39434814 33.74938965 C-0.51388897 26.71345344 -1.16454951 21.96156679 -5 16 C-9.50946975 11.91001581 -14.03511432 10.76707577 -20 11 C-25.71043989 11.98814534 -29.11530484 14.60465301 -32.7734375 18.98828125 C-36.71820331 25.45819969 -36.34174699 32.27940137 -36.4140625 39.6171875 C-36.43342865 40.82948029 -36.4527948 42.04177307 -36.4727478 43.290802 C-36.53239315 47.15213039 -36.57886945 51.01348883 -36.625 54.875 C-36.66319356 57.49740863 -36.70224609 60.11980491 -36.7421875 62.7421875 C-36.83808261 69.16135762 -36.92216975 75.58058646 -37 82 C-41.95 82 -46.9 82 -52 82 C-52 54.61 -52 27.22 -52 -1 C-47.05 -1 -42.1 -1 -37 -1 C-36.67 0.98 -36.34 2.96 -36 5 C-35.154375 4.236875 -34.30875 3.47375 -33.4375 2.6875 C-24.25686445 -4.77574184 -10.50437757 -5.8066425 0 0 Z " fill="#323232" transform="translate(1812,300)"/>
<path d="M0 0 C9.39857445 6.9433728 16.76253946 16.36939512 19.1875 28.046875 C20.80416401 41.51169305 19.27248573 54.29355356 11.09375 65.4296875 C4.0499298 74.08594847 -3.59334716 78.78143114 -14.52734375 81.421875 C-28.29309315 82.63983225 -39.61140512 80.33242339 -50.52734375 71.421875 C-59.2466946 63.42327694 -63.75709055 52.51361361 -64.74609375 40.83984375 C-65.19453892 27.7788783 -61.1237176 15.926806 -52.45703125 6.06640625 C-38.58529061 -7.18384063 -16.51292511 -10.31100734 0 0 Z M-44.20703125 19.55859375 C-49.23641982 26.65628117 -50.36139589 34.92421332 -49.52734375 43.421875 C-47.54439334 52.40198799 -43.05632235 59.41392063 -35.58203125 64.83203125 C-29.9203907 68.02959747 -23.5826441 69.12129662 -17.171875 68.015625 C-7.90556263 65.33620937 -2.37159679 60.03770729 2.34375 51.7890625 C5.72764653 44.69341788 5.63968763 35.28684917 3.82421875 27.71875 C0.66828678 20.00424963 -5.21143719 13.38465772 -12.52734375 9.421875 C-24.99403441 5.04759757 -35.94835699 9.46225637 -44.20703125 19.55859375 Z " fill="#323232" transform="translate(1724.52734375,302.578125)"/>
<path d="M0 0 C6.57913297 5.44385638 11.30830669 11.41027152 14.6875 19.25 C14.6875 19.91 14.6875 20.57 14.6875 21.25 C0.56987196 22.63777654 0.56987196 22.63777654 -3.83984375 19.38671875 C-5.11365858 17.79510144 -6.34872859 16.17169357 -7.54296875 14.51953125 C-11.09321861 9.96612028 -15.63739323 8.62646969 -21.19921875 7.84375 C-29.43586014 7.42189897 -35.81578662 9.4316701 -42.125 14.7890625 C-47.98213028 20.96833495 -50.51541863 28.33269441 -50.8125 36.75 C-50.51541863 45.16730559 -47.98213028 52.53166505 -42.125 58.7109375 C-35.8119274 64.07160691 -29.44765777 66.05300859 -21.2109375 65.671875 C-14.10417174 64.63746705 -8.97435871 61.73453965 -4.3125 56.25 C-3.94253906 55.54359375 -3.57257813 54.8371875 -3.19140625 54.109375 C-1.3125 52.25 -1.3125 52.25 2.48046875 51.859375 C3.94582231 51.88589724 5.41091551 51.93350883 6.875 52 C7.62458984 52.01804687 8.37417969 52.03609375 9.14648438 52.0546875 C10.9940371 52.10175891 12.84093159 52.17350234 14.6875 52.25 C11.69648938 61.79145922 6.49351355 69.82653384 -2.25390625 74.984375 C-12.7849618 80.41142203 -23.80490001 82.08127921 -35.48828125 79.56640625 C-46.14562596 75.93356315 -55.24343725 69.54625045 -60.78515625 59.609375 C-66.68695376 47.28958778 -68.00507784 35.43444581 -64.359375 22.17578125 C-62.65717517 17.41851382 -60.19505048 13.3774566 -57.3125 9.25 C-56.590625 8.198125 -55.86875 7.14625 -55.125 6.0625 C-40.50825412 -8.55424588 -17.38796526 -12.16825103 0 0 Z " fill="#323232" transform="translate(1636.3125,303.75)"/>
<path d="M0 0 C0.01981934 1.22291748 0.03963867 2.44583496 0.06005859 3.70581055 C0.13757812 8.35246447 0.22603467 12.99886279 0.31738281 17.64526367 C0.35508122 19.63577132 0.39002259 21.62633358 0.421875 23.61694336 C0.73902914 43.21607796 2.23494955 62.48481696 5.61767578 81.80273438 C5.86869947 83.24539925 6.11211627 84.68941254 6.34716797 86.13476562 C7.5543163 93.55636262 8.84435002 99.92237348 13.01171875 106.265625 C14 108 14 108 14 111 C-1.64755399 94.24554508 -7.47263495 68.53955547 -13.75 47.125 C-13.94086182 46.47704468 -14.13172363 45.82908936 -14.32836914 45.16149902 C-22.47535645 17.37678225 -22.47535645 17.37678225 -21 10 C-18.66383905 7.65086038 -15.9823642 6.38649693 -13 5 C-12.03964844 4.53335938 -11.07929687 4.06671875 -10.08984375 3.5859375 C-2.48725559 0 -2.48725559 0 0 0 Z " fill="#0A7EA6" transform="translate(1116,83)"/>
<path d="M0 0 C5.94 0 11.88 0 18 0 C18 5.94 18 11.88 18 18 C12.06 18 6.12 18 0 18 C0 12.06 0 6.12 0 0 Z " fill="#323232" transform="translate(1534,364)"/>
</svg>
